<?xml version="1.0" encoding="UTF-8" standalone="no"?>
<!-- Created with Inkscape (http://www.inkscape.org/) -->

<svg
   version="1.1"
   id="svg1"
   width="441.38834"
   height="445.14182"
   viewBox="0 0 441.38834 445.14182"
   xmlns="http://www.w3.org/2000/svg"
   xmlns:svg="http://www.w3.org/2000/svg">
  <defs
     id="defs1">
    <clipPath
       clipPathUnits="userSpaceOnUse"
       id="clipPath6">
      <path
         d="m 1150.08,2875.27 c -21.94,0.75 -43.87,0.75 -65.71,0 -9.96,-0.32 -20.13,-0.85 -29.36,-4.56 -13.99,-5.4 -24.26,-17.06 -34.12,-28.4 -39.109,-45.04 -78.214,-89.98 -117.327,-135.02 -188.961,124.53 -365.532,255.52 -540.086,404.54 102.593,128.34 205.293,256.37 308.093,384.5 44.196,55.11 88.391,110.22 132.692,165.33 27.023,33.71 54.261,67.62 84.679,98.36 22.254,22.46 46.106,43.02 71.114,61.99 166.395,-222.24 183.035,-522.6 187.905,-801.86 0.85,-48.33 1.59,-96.55 2.12,-144.88"
         transform="translate(0,2.5e-5)"
         id="path6" />
    </clipPath>
    <clipPath
       clipPathUnits="userSpaceOnUse"
       id="clipPath8">
      <path
         d="m 1150.08,2875.27 c -21.94,0.75 -43.87,0.75 -65.71,0 -9.96,-0.32 -20.13,-0.85 -29.36,-4.56 -13.99,-5.4 -24.26,-17.06 -34.12,-28.4 -39.109,-45.04 -78.214,-89.98 -117.327,-135.02 -188.961,124.53 -365.532,255.52 -540.086,404.54 102.593,128.34 205.293,256.37 308.093,384.5 44.196,55.11 88.391,110.22 132.692,165.33 27.023,33.71 54.261,67.62 84.679,98.36 22.254,22.46 46.106,43.02 71.114,61.99 166.395,-222.24 183.035,-522.6 187.905,-801.86 0.85,-48.33 1.59,-96.55 2.12,-144.88"
         transform="translate(0,2.5e-5)"
         id="path8" />
    </clipPath>
    <clipPath
       clipPathUnits="userSpaceOnUse"
       id="clipPath17">
      <path
         d="m 2877.28,2875.27 c 21.94,0.75 43.88,0.75 65.71,0 9.96,-0.32 20.14,-0.85 29.36,-4.56 13.99,-5.4 24.26,-17.06 34.12,-28.4 39.11,-45.04 78.22,-89.98 117.33,-135.02 188.96,124.53 365.53,255.52 540.09,404.54 -102.6,128.34 -205.29,256.37 -308.09,384.5 -44.2,55.11 -88.4,110.22 -132.69,165.33 -27.03,33.71 -54.27,67.62 -84.69,98.36 -22.25,22.46 -46.1,43.02 -71.11,61.99 -166.39,-222.24 -183.03,-522.6 -187.91,-801.86 -0.85,-48.33 -1.59,-96.55 -2.12,-144.88"
         transform="translate(0,2.5e-5)"
         id="path17" />
    </clipPath>
    <clipPath
       clipPathUnits="userSpaceOnUse"
       id="clipPath19">
      <path
         d="m 2877.28,2875.27 c 21.94,0.75 43.88,0.75 65.71,0 9.96,-0.32 20.14,-0.85 29.36,-4.56 13.99,-5.4 24.26,-17.06 34.12,-28.4 39.11,-45.04 78.22,-89.98 117.33,-135.02 188.96,124.53 365.53,255.52 540.09,404.54 -102.6,128.34 -205.29,256.37 -308.09,384.5 -44.2,55.11 -88.4,110.22 -132.69,165.33 -27.03,33.71 -54.27,67.62 -84.69,98.36 -22.25,22.46 -46.1,43.02 -71.11,61.99 -166.39,-222.24 -183.03,-522.6 -187.91,-801.86 -0.85,-48.33 -1.59,-96.55 -2.12,-144.88"
         transform="translate(0,2.5e-5)"
         id="path19" />
    </clipPath>
    <clipPath
       clipPathUnits="userSpaceOnUse"
       id="clipPath27">
      <path
         d="m 2930.91,810.41 c -155.48,-20.351 -312.44,-27.34 -469.19,-34.441 -93.16,-4.129 -331.4,-3.289 -448.09,-3.289 -116.59,0 -354.83,-0.84 -447.99,3.289 -156.75,7.101 -313.71,14.09 -469.29,34.441 43.87,686.87 62.1,1375.98 53.73,2064.86 -0.53,48.33 -1.27,96.55 -2.12,144.88 -4.87,279.26 -21.51,579.62 -187.905,801.86 116.475,88.5 258.915,142.12 397.545,193.31 30.52,11.34 126.22,38.16 142.33,41.02 51.61,9.22 97.19,40.06 139.58,44.83 -16.53,-97.08 27.45,-199.03 100.15,-265.59 36.36,-33.28 80.23,-58.29 127.29,-75.04 47.05,-16.74 97.4,-25.11 146.68,-25.11 98.67,0 201.26,33.59 274.07,100.15 72.7,66.56 116.68,168.51 100.15,265.59 42.39,-4.77 87.97,-35.61 139.58,-44.83 16.11,-2.86 111.81,-29.68 142.23,-41.02 138.63,-51.19 281.17,-104.81 397.65,-193.31 -166.39,-222.24 -183.03,-522.6 -188.01,-801.86 -0.85,-48.33 -1.6,-96.55 -2.12,-144.88 -8.27,-688.88 9.96,-1377.99 53.73,-2064.86"
         transform="translate(0,2.5e-5)"
         id="path27" />
    </clipPath>
    <clipPath
       clipPathUnits="userSpaceOnUse"
       id="clipPath29">
      <path
         d="m 2930.91,810.41 c -155.48,-20.351 -312.44,-27.34 -469.19,-34.441 -93.16,-4.129 -331.4,-3.289 -448.09,-3.289 -116.59,0 -354.83,-0.84 -447.99,3.289 -156.75,7.101 -313.71,14.09 -469.29,34.441 43.87,686.87 62.1,1375.98 53.73,2064.86 -0.53,48.33 -1.27,96.55 -2.12,144.88 -4.87,279.26 -21.51,579.62 -187.905,801.86 116.475,88.5 258.915,142.12 397.545,193.31 30.52,11.34 126.22,38.16 142.33,41.02 51.61,9.22 97.19,40.06 139.58,44.83 -16.53,-97.08 27.45,-199.03 100.15,-265.59 36.36,-33.28 80.23,-58.29 127.29,-75.04 47.05,-16.74 97.4,-25.11 146.68,-25.11 98.67,0 201.26,33.59 274.07,100.15 72.7,66.56 116.68,168.51 100.15,265.59 42.39,-4.77 87.97,-35.61 139.58,-44.83 16.11,-2.86 111.81,-29.68 142.23,-41.02 138.63,-51.19 281.17,-104.81 397.65,-193.31 -166.39,-222.24 -183.03,-522.6 -188.01,-801.86 -0.85,-48.33 -1.6,-96.55 -2.12,-144.88 -8.27,-688.88 9.96,-1377.99 53.73,-2064.86"
         transform="translate(0,2.5e-5)"
         id="path29" />
    </clipPath>
    <clipPath
       clipPathUnits="userSpaceOnUse"
       id="clipPath31">
      <path
         d="m 2930.91,810.41 c -155.48,-20.351 -312.44,-27.34 -469.19,-34.441 -93.16,-4.129 -331.4,-3.289 -448.09,-3.289 -116.59,0 -354.83,-0.84 -447.99,3.289 -156.75,7.101 -313.71,14.09 -469.29,34.441 43.87,686.87 62.1,1375.98 53.73,2064.86 -0.53,48.33 -1.27,96.55 -2.12,144.88 -4.87,279.26 -21.51,579.62 -187.905,801.86 116.475,88.5 258.915,142.12 397.545,193.31 30.52,11.34 126.22,38.16 142.33,41.02 51.61,9.22 97.19,40.06 139.58,44.83 -16.53,-97.08 27.45,-199.03 100.15,-265.59 36.36,-33.28 80.23,-58.29 127.29,-75.04 47.05,-16.74 97.4,-25.11 146.68,-25.11 98.67,0 201.26,33.59 274.07,100.15 72.7,66.56 116.68,168.51 100.15,265.59 42.39,-4.77 87.97,-35.61 139.58,-44.83 16.11,-2.86 111.81,-29.68 142.23,-41.02 138.63,-51.19 281.17,-104.81 397.65,-193.31 -166.39,-222.24 -183.03,-522.6 -188.01,-801.86 -0.85,-48.33 -1.6,-96.55 -2.12,-144.88 -8.27,-688.88 9.96,-1377.99 53.73,-2064.86"
         transform="translate(0,2.5e-5)"
         id="path31" />
    </clipPath>
    <clipPath
       clipPathUnits="userSpaceOnUse"
       id="clipPath33">
      <path
         d="m 2930.91,810.41 c -155.48,-20.351 -312.44,-27.34 -469.19,-34.441 -93.16,-4.129 -331.4,-3.289 -448.09,-3.289 -116.59,0 -354.83,-0.84 -447.99,3.289 -156.75,7.101 -313.71,14.09 -469.29,34.441 43.87,686.87 62.1,1375.98 53.73,2064.86 -0.53,48.33 -1.27,96.55 -2.12,144.88 -4.87,279.26 -21.51,579.62 -187.905,801.86 116.475,88.5 258.915,142.12 397.545,193.31 30.52,11.34 126.22,38.16 142.33,41.02 51.61,9.22 97.19,40.06 139.58,44.83 -16.53,-97.08 27.45,-199.03 100.15,-265.59 36.36,-33.28 80.23,-58.29 127.29,-75.04 47.05,-16.74 97.4,-25.11 146.68,-25.11 98.67,0 201.26,33.59 274.07,100.15 72.7,66.56 116.68,168.51 100.15,265.59 42.39,-4.77 87.97,-35.61 139.58,-44.83 16.11,-2.86 111.81,-29.68 142.23,-41.02 138.63,-51.19 281.17,-104.81 397.65,-193.31 -166.39,-222.24 -183.03,-522.6 -188.01,-801.86 -0.85,-48.33 -1.6,-96.55 -2.12,-144.88 -8.27,-688.88 9.96,-1377.99 53.73,-2064.86"
         transform="translate(0,2.5e-5)"
         id="path33" />
    </clipPath>
    <clipPath
       clipPathUnits="userSpaceOnUse"
       id="clipPath35">
      <path
         d="m 2930.91,810.41 c -155.48,-20.351 -312.44,-27.34 -469.19,-34.441 -93.16,-4.129 -331.4,-3.289 -448.09,-3.289 -116.59,0 -354.83,-0.84 -447.99,3.289 -156.75,7.101 -313.71,14.09 -469.29,34.441 43.87,686.87 62.1,1375.98 53.73,2064.86 -0.53,48.33 -1.27,96.55 -2.12,144.88 -4.87,279.26 -21.51,579.62 -187.905,801.86 116.475,88.5 258.915,142.12 397.545,193.31 30.52,11.34 126.22,38.16 142.33,41.02 51.61,9.22 97.19,40.06 139.58,44.83 -16.53,-97.08 27.45,-199.03 100.15,-265.59 36.36,-33.28 80.23,-58.29 127.29,-75.04 47.05,-16.74 97.4,-25.11 146.68,-25.11 98.67,0 201.26,33.59 274.07,100.15 72.7,66.56 116.68,168.51 100.15,265.59 42.39,-4.77 87.97,-35.61 139.58,-44.83 16.11,-2.86 111.81,-29.68 142.23,-41.02 138.63,-51.19 281.17,-104.81 397.65,-193.31 -166.39,-222.24 -183.03,-522.6 -188.01,-801.86 -0.85,-48.33 -1.6,-96.55 -2.12,-144.88 -8.27,-688.88 9.96,-1377.99 53.73,-2064.86"
         transform="translate(0,2.5e-5)"
         id="path35" />
    </clipPath>
    <clipPath
       clipPathUnits="userSpaceOnUse"
       id="clipPath37">
      <path
         d="m 2930.91,810.41 c -155.48,-20.351 -312.44,-27.34 -469.19,-34.441 -93.16,-4.129 -331.4,-3.289 -448.09,-3.289 -116.59,0 -354.83,-0.84 -447.99,3.289 -156.75,7.101 -313.71,14.09 -469.29,34.441 43.87,686.87 62.1,1375.98 53.73,2064.86 -0.53,48.33 -1.27,96.55 -2.12,144.88 -4.87,279.26 -21.51,579.62 -187.905,801.86 116.475,88.5 258.915,142.12 397.545,193.31 30.52,11.34 126.22,38.16 142.33,41.02 51.61,9.22 97.19,40.06 139.58,44.83 -16.53,-97.08 27.45,-199.03 100.15,-265.59 36.36,-33.28 80.23,-58.29 127.29,-75.04 47.05,-16.74 97.4,-25.11 146.68,-25.11 98.67,0 201.26,33.59 274.07,100.15 72.7,66.56 116.68,168.51 100.15,265.59 42.39,-4.77 87.97,-35.61 139.58,-44.83 16.11,-2.86 111.81,-29.68 142.23,-41.02 138.63,-51.19 281.17,-104.81 397.65,-193.31 -166.39,-222.24 -183.03,-522.6 -188.01,-801.86 -0.85,-48.33 -1.6,-96.55 -2.12,-144.88 -8.27,-688.88 9.96,-1377.99 53.73,-2064.86"
         transform="translate(0,2.5e-5)"
         id="path37" />
    </clipPath>
    <clipPath
       clipPathUnits="userSpaceOnUse"
       id="clipPath39">
      <path
         d="m 2930.91,810.41 c -155.48,-20.351 -312.44,-27.34 -469.19,-34.441 -93.16,-4.129 -331.4,-3.289 -448.09,-3.289 -116.59,0 -354.83,-0.84 -447.99,3.289 -156.75,7.101 -313.71,14.09 -469.29,34.441 43.87,686.87 62.1,1375.98 53.73,2064.86 -0.53,48.33 -1.27,96.55 -2.12,144.88 -4.87,279.26 -21.51,579.62 -187.905,801.86 116.475,88.5 258.915,142.12 397.545,193.31 30.52,11.34 126.22,38.16 142.33,41.02 51.61,9.22 97.19,40.06 139.58,44.83 -16.53,-97.08 27.45,-199.03 100.15,-265.59 36.36,-33.28 80.23,-58.29 127.29,-75.04 47.05,-16.74 97.4,-25.11 146.68,-25.11 98.67,0 201.26,33.59 274.07,100.15 72.7,66.56 116.68,168.51 100.15,265.59 42.39,-4.77 87.97,-35.61 139.58,-44.83 16.11,-2.86 111.81,-29.68 142.23,-41.02 138.63,-51.19 281.17,-104.81 397.65,-193.31 -166.39,-222.24 -183.03,-522.6 -188.01,-801.86 -0.85,-48.33 -1.6,-96.55 -2.12,-144.88 -8.27,-688.88 9.96,-1377.99 53.73,-2064.86"
         transform="translate(0,2.5e-5)"
         id="path39" />
    </clipPath>
    <clipPath
       clipPathUnits="userSpaceOnUse"
       id="clipPath41">
      <path
         d="m 2930.91,810.41 c -155.48,-20.351 -312.44,-27.34 -469.19,-34.441 -93.16,-4.129 -331.4,-3.289 -448.09,-3.289 -116.59,0 -354.83,-0.84 -447.99,3.289 -156.75,7.101 -313.71,14.09 -469.29,34.441 43.87,686.87 62.1,1375.98 53.73,2064.86 -0.53,48.33 -1.27,96.55 -2.12,144.88 -4.87,279.26 -21.51,579.62 -187.905,801.86 116.475,88.5 258.915,142.12 397.545,193.31 30.52,11.34 126.22,38.16 142.33,41.02 51.61,9.22 97.19,40.06 139.58,44.83 -16.53,-97.08 27.45,-199.03 100.15,-265.59 36.36,-33.28 80.23,-58.29 127.29,-75.04 47.05,-16.74 97.4,-25.11 146.68,-25.11 98.67,0 201.26,33.59 274.07,100.15 72.7,66.56 116.68,168.51 100.15,265.59 42.39,-4.77 87.97,-35.61 139.58,-44.83 16.11,-2.86 111.81,-29.68 142.23,-41.02 138.63,-51.19 281.17,-104.81 397.65,-193.31 -166.39,-222.24 -183.03,-522.6 -188.01,-801.86 -0.85,-48.33 -1.6,-96.55 -2.12,-144.88 -8.27,-688.88 9.96,-1377.99 53.73,-2064.86"
         transform="translate(0,2.5e-5)"
         id="path41" />
    </clipPath>
    <clipPath
       clipPathUnits="userSpaceOnUse"
       id="clipPath43">
      <path
         d="m 2930.91,810.41 c -155.48,-20.351 -312.44,-27.34 -469.19,-34.441 -93.16,-4.129 -331.4,-3.289 -448.09,-3.289 -116.59,0 -354.83,-0.84 -447.99,3.289 -156.75,7.101 -313.71,14.09 -469.29,34.441 43.87,686.87 62.1,1375.98 53.73,2064.86 -0.53,48.33 -1.27,96.55 -2.12,144.88 -4.87,279.26 -21.51,579.62 -187.905,801.86 116.475,88.5 258.915,142.12 397.545,193.31 30.52,11.34 126.22,38.16 142.33,41.02 51.61,9.22 97.19,40.06 139.58,44.83 -16.53,-97.08 27.45,-199.03 100.15,-265.59 36.36,-33.28 80.23,-58.29 127.29,-75.04 47.05,-16.74 97.4,-25.11 146.68,-25.11 98.67,0 201.26,33.59 274.07,100.15 72.7,66.56 116.68,168.51 100.15,265.59 42.39,-4.77 87.97,-35.61 139.58,-44.83 16.11,-2.86 111.81,-29.68 142.23,-41.02 138.63,-51.19 281.17,-104.81 397.65,-193.31 -166.39,-222.24 -183.03,-522.6 -188.01,-801.86 -0.85,-48.33 -1.6,-96.55 -2.12,-144.88 -8.27,-688.88 9.96,-1377.99 53.73,-2064.86"
         transform="translate(0,2.5e-5)"
         id="path43" />
    </clipPath>
    <clipPath
       clipPathUnits="userSpaceOnUse"
       id="clipPath45">
      <path
         d="m 2930.91,810.41 c -155.48,-20.351 -312.44,-27.34 -469.19,-34.441 -93.16,-4.129 -331.4,-3.289 -448.09,-3.289 -116.59,0 -354.83,-0.84 -447.99,3.289 -156.75,7.101 -313.71,14.09 -469.29,34.441 43.87,686.87 62.1,1375.98 53.73,2064.86 -0.53,48.33 -1.27,96.55 -2.12,144.88 -4.87,279.26 -21.51,579.62 -187.905,801.86 116.475,88.5 258.915,142.12 397.545,193.31 30.52,11.34 126.22,38.16 142.33,41.02 51.61,9.22 97.19,40.06 139.58,44.83 -16.53,-97.08 27.45,-199.03 100.15,-265.59 36.36,-33.28 80.23,-58.29 127.29,-75.04 47.05,-16.74 97.4,-25.11 146.68,-25.11 98.67,0 201.26,33.59 274.07,100.15 72.7,66.56 116.68,168.51 100.15,265.59 42.39,-4.77 87.97,-35.61 139.58,-44.83 16.11,-2.86 111.81,-29.68 142.23,-41.02 138.63,-51.19 281.17,-104.81 397.65,-193.31 -166.39,-222.24 -183.03,-522.6 -188.01,-801.86 -0.85,-48.33 -1.6,-96.55 -2.12,-144.88 -8.27,-688.88 9.96,-1377.99 53.73,-2064.86"
         transform="translate(0,2.5e-5)"
         id="path45" />
    </clipPath>
    <clipPath
       clipPathUnits="userSpaceOnUse"
       id="clipPath47">
      <path
         d="m 2930.91,810.41 c -155.48,-20.351 -312.44,-27.34 -469.19,-34.441 -93.16,-4.129 -331.4,-3.289 -448.09,-3.289 -116.59,0 -354.83,-0.84 -447.99,3.289 -156.75,7.101 -313.71,14.09 -469.29,34.441 43.87,686.87 62.1,1375.98 53.73,2064.86 -0.53,48.33 -1.27,96.55 -2.12,144.88 -4.87,279.26 -21.51,579.62 -187.905,801.86 116.475,88.5 258.915,142.12 397.545,193.31 30.52,11.34 126.22,38.16 142.33,41.02 51.61,9.22 97.19,40.06 139.58,44.83 -16.53,-97.08 27.45,-199.03 100.15,-265.59 36.36,-33.28 80.23,-58.29 127.29,-75.04 47.05,-16.74 97.4,-25.11 146.68,-25.11 98.67,0 201.26,33.59 274.07,100.15 72.7,66.56 116.68,168.51 100.15,265.59 42.39,-4.77 87.97,-35.61 139.58,-44.83 16.11,-2.86 111.81,-29.68 142.23,-41.02 138.63,-51.19 281.17,-104.81 397.65,-193.31 -166.39,-222.24 -183.03,-522.6 -188.01,-801.86 -0.85,-48.33 -1.6,-96.55 -2.12,-144.88 -8.27,-688.88 9.96,-1377.99 53.73,-2064.86"
         transform="translate(0,2.5e-5)"
         id="path47" />
    </clipPath>
    <clipPath
       clipPathUnits="userSpaceOnUse"
       id="clipPath49">
      <path
         d="m 2930.91,810.41 c -155.48,-20.351 -312.44,-27.34 -469.19,-34.441 -93.16,-4.129 -331.4,-3.289 -448.09,-3.289 -116.59,0 -354.83,-0.84 -447.99,3.289 -156.75,7.101 -313.71,14.09 -469.29,34.441 43.87,686.87 62.1,1375.98 53.73,2064.86 -0.53,48.33 -1.27,96.55 -2.12,144.88 -4.87,279.26 -21.51,579.62 -187.905,801.86 116.475,88.5 258.915,142.12 397.545,193.31 30.52,11.34 126.22,38.16 142.33,41.02 51.61,9.22 97.19,40.06 139.58,44.83 -16.53,-97.08 27.45,-199.03 100.15,-265.59 36.36,-33.28 80.23,-58.29 127.29,-75.04 47.05,-16.74 97.4,-25.11 146.68,-25.11 98.67,0 201.26,33.59 274.07,100.15 72.7,66.56 116.68,168.51 100.15,265.59 42.39,-4.77 87.97,-35.61 139.58,-44.83 16.11,-2.86 111.81,-29.68 142.23,-41.02 138.63,-51.19 281.17,-104.81 397.65,-193.31 -166.39,-222.24 -183.03,-522.6 -188.01,-801.86 -0.85,-48.33 -1.6,-96.55 -2.12,-144.88 -8.27,-688.88 9.96,-1377.99 53.73,-2064.86"
         transform="translate(0,2.5e-5)"
         id="path49" />
    </clipPath>
    <clipPath
       clipPathUnits="userSpaceOnUse"
       id="clipPath51">
      <path
         d="m 2930.91,810.41 c -155.48,-20.351 -312.44,-27.34 -469.19,-34.441 -93.16,-4.129 -331.4,-3.289 -448.09,-3.289 -116.59,0 -354.83,-0.84 -447.99,3.289 -156.75,7.101 -313.71,14.09 -469.29,34.441 43.87,686.87 62.1,1375.98 53.73,2064.86 -0.53,48.33 -1.27,96.55 -2.12,144.88 -4.87,279.26 -21.51,579.62 -187.905,801.86 116.475,88.5 258.915,142.12 397.545,193.31 30.52,11.34 126.22,38.16 142.33,41.02 51.61,9.22 97.19,40.06 139.58,44.83 -16.53,-97.08 27.45,-199.03 100.15,-265.59 36.36,-33.28 80.23,-58.29 127.29,-75.04 47.05,-16.74 97.4,-25.11 146.68,-25.11 98.67,0 201.26,33.59 274.07,100.15 72.7,66.56 116.68,168.51 100.15,265.59 42.39,-4.77 87.97,-35.61 139.58,-44.83 16.11,-2.86 111.81,-29.68 142.23,-41.02 138.63,-51.19 281.17,-104.81 397.65,-193.31 -166.39,-222.24 -183.03,-522.6 -188.01,-801.86 -0.85,-48.33 -1.6,-96.55 -2.12,-144.88 -8.27,-688.88 9.96,-1377.99 53.73,-2064.86"
         transform="translate(0,2.5e-5)"
         id="path51" />
    </clipPath>
    <clipPath
       clipPathUnits="userSpaceOnUse"
       id="clipPath53">
      <path
         d="m 1150.14,2870.27 c -0.02,1.69 -0.04,3.32 -0.06,5 -0.53,48.33 -1.27,96.55 -2.12,144.88 -0.29,16.72 -0.63,33.53 -1.04,50.38 0.01,0 0.01,0 0.01,0 0.41,-16.85 0.74,-33.66 1.03,-50.38 0.12,-6.73 0.24,-13.45 0.35,-20.18 v 0 c 0.07,-4.33 0.15,-8.65 0.22,-12.98 v 0 c 0.23,-14.19 0.45,-28.36 0.66,-42.55 v 0 c 0.05,-3.43 0.1,-6.86 0.15,-10.29 v 0 c 0.28,-19.62 0.53,-39.24 0.74,-58.88 0.02,-1.68 0.04,-3.31 0.06,-5 v 0"
         transform="translate(0,2.5e-5)"
         id="path53" />
    </clipPath>
    <clipPath
       clipPathUnits="userSpaceOnUse"
       id="clipPath74">
      <path
         d="m 2287.7,3835.58 c -72.81,-66.56 -175.4,-100.15 -274.07,-100.15 -49.28,0 -99.63,8.37 -146.68,25.11 -47.06,16.75 -90.93,41.76 -127.29,75.04 -72.7,66.56 -116.68,168.51 -100.15,265.59 113.3,-50.12 258.92,-69.94 374.12,-69.94 115.31,0 260.93,19.82 374.22,69.94 16.53,-97.08 -27.45,-199.03 -100.15,-265.59"
         transform="translate(0,2.5e-5)"
         id="path74" />
    </clipPath>
  </defs>
  <g
     id="g1"
     transform="translate(-26.175188,-116.47429)">
    <g
       id="group-R5"
       transform="translate(-21.621622,-2.7027027)"
       style="display:inline">
      <path
         id="path3"
         d="m 1150.08,2875.27 c -21.94,0.75 -43.87,0.75 -65.71,0 -9.96,-0.32 -20.13,-0.85 -29.36,-4.56 -13.99,-5.4 -24.26,-17.06 -34.12,-28.4 -39.109,-45.04 -78.214,-89.98 -117.327,-135.02 -188.961,124.53 -365.532,255.52 -540.086,404.54 102.593,128.34 205.293,256.37 308.093,384.5 44.196,55.11 88.391,110.22 132.692,165.33 27.023,33.71 54.261,67.62 84.679,98.36 22.254,22.46 46.106,43.02 71.114,61.99 166.395,-222.24 183.035,-522.6 187.905,-801.86 0.85,-48.33 1.59,-96.55 2.12,-144.88"
         style="fill:#ffffff;fill-opacity:1;fill-rule:nonzero;stroke:none"
         transform="matrix(0.13333333,0,0,-0.13333333,0,666.66667)" />
      <path
         id="path4"
         d="m 945.852,2831.16 c 32.273,45.65 85.078,76.48 140.718,82.14 2.75,0.28 4.74,2.73 4.46,5.48 -0.28,2.75 -2.73,4.75 -5.48,4.47 -58.61,-6.01 -113.82,-38.24 -147.862,-86.31 -1.598,-2.26 -1.063,-5.38 1.191,-6.97 2.254,-1.6 5.375,-1.06 6.973,1.19"
         style="fill:#d0d7ef;fill-opacity:1;fill-rule:nonzero;stroke:none"
         transform="matrix(0.13333333,0,0,-0.13333333,0,666.66667)" />
      <path
         id="path5"
         d="m 387.074,3157.49 c 189.422,-146 390.867,-279.58 602.156,-399.35 2.399,-1.36 5.454,-0.52 6.813,1.88 1.363,2.41 0.52,5.46 -1.883,6.82 -210.883,119.54 -411.937,252.86 -600.98,398.57 -2.188,1.69 -5.328,1.28 -7.012,-0.91 -1.688,-2.18 -1.281,-5.32 0.906,-7.01"
         style="fill:#6b758d;fill-opacity:1;fill-rule:nonzero;stroke:none"
         transform="matrix(0.13333333,0,0,-0.13333333,0,666.66667)"
         clip-path="url(#clipPath6)" />
      <path
         id="path7"
         d="M 422.512,3198.26 C 618.156,3057.73 814.633,2916.64 1028.92,2799 c 2.42,-1.33 5.46,-0.44 6.79,1.98 1.32,2.42 0.44,5.46 -1.98,6.79 -213.589,117.25 -409.742,258.08 -605.382,398.61 -2.243,1.61 -5.368,1.1 -6.981,-1.14 -1.609,-2.25 -1.097,-5.37 1.145,-6.98"
         style="fill:#6b758d;fill-opacity:1;fill-rule:nonzero;stroke:none"
         transform="matrix(0.13333333,0,0,-0.13333333,0,666.66667)"
         clip-path="url(#clipPath8)" />
      <path
         id="path9"
         d="m 902.66,2713.88 c -46.941,30.98 -93.133,62.37 -138.707,94.34 11.027,17.49 24.93,37.64 41.895,58.87 49.8,-30.98 100.238,-61.19 151.242,-90.58 -18.141,-20.87 -36.285,-41.74 -54.43,-62.63 m 61.113,70.32 c -51.125,29.43 -101.66,59.68 -151.574,90.72 9.281,11.25 19.403,22.74 30.399,34.26 33.781,-21.31 67.91,-42.17 102.461,-62.49 -2.555,-3.17 -5.012,-6.42 -7.371,-9.75 -1.598,-2.26 -1.063,-5.38 1.191,-6.97 0.879,-0.62 1.887,-0.92 2.883,-0.92 1.566,0 3.113,0.73 4.09,2.11 2.519,3.57 5.164,7.04 7.929,10.42 13.235,-7.73 26.555,-15.39 39.918,-22.95 -9.972,-11.48 -19.949,-22.96 -29.926,-34.43 m 36.617,42.14 c -13.39,7.56 -26.699,15.2 -39.964,22.94 32.41,35.6 78.234,59.15 126.144,64.02 2.75,0.28 4.74,2.73 4.46,5.48 -0.26,2.57 -2.43,4.49 -4.96,4.49 -0.17,0 -0.35,-0.01 -0.52,-0.02 -51.18,-5.25 -99.765,-30.48 -133.929,-68.81 -34.348,20.17 -68.301,40.9 -101.902,62.07 66.078,66.92 161.781,132.83 292.231,153.27 0.4,-16.63 0.73,-33.2 1.01,-49.71 0.82,-46.59 1.54,-93.07 2.07,-139.64 -9.29,0.27 -18.57,0.4 -27.84,0.4 -11.01,0 -22.02,-0.19 -32.99,-0.56 h 0.01 c -10,-0.34 -20.74,-0.8 -31,-4.89 v 0 c -15.51,-6.05 -26.21,-18.48 -36.1,-29.79 -5.57,-6.42 -11.14,-12.84 -16.72,-19.25"
         style="fill:#eaeae7;fill-opacity:1;fill-rule:nonzero;stroke:none"
         transform="matrix(0.13333333,0,0,-0.13333333,0,666.66667)" />
      <path
         id="path10"
         d="m 941.762,2829.05 c -0.996,0 -2.004,0.3 -2.883,0.92 -2.254,1.59 -2.789,4.71 -1.191,6.97 2.359,3.33 4.816,6.58 7.371,9.75 2.906,-1.71 5.808,-3.41 8.722,-5.11 -2.765,-3.38 -5.41,-6.85 -7.929,-10.42 -0.977,-1.38 -2.524,-2.11 -4.09,-2.11 m 18.664,20.23 c -2.934,1.71 -5.879,3.44 -8.805,5.16 34.164,38.33 82.749,63.56 133.929,68.81 0.17,0.01 0.35,0.02 0.52,0.02 2.53,0 4.7,-1.92 4.96,-4.49 0.28,-2.75 -1.71,-5.2 -4.46,-5.48 -47.91,-4.87 -93.734,-28.42 -126.144,-64.02"
         style="fill:#bfc5db;fill-opacity:1;fill-rule:nonzero;stroke:none"
         transform="matrix(0.13333333,0,0,-0.13333333,0,666.66667)" />
      <path
         id="path11"
         d="m 957.09,2776.51 c -51.004,29.39 -101.442,59.6 -151.242,90.58 2.07,2.59 4.191,5.21 6.351,7.83 49.914,-31.04 100.449,-61.29 151.574,-90.72 -2.226,-2.57 -4.453,-5.13 -6.683,-7.69"
         style="fill:#636c83;fill-opacity:1;fill-rule:nonzero;stroke:none"
         transform="matrix(0.13333333,0,0,-0.13333333,0,666.66667)" />
      <path
         id="path12"
         d="m 993.699,2818.63 c -13.363,7.56 -26.683,15.22 -39.918,22.95 -2.914,1.7 -5.816,3.4 -8.722,5.11 -34.551,20.32 -68.68,41.18 -102.461,62.49 2.336,2.44 4.711,4.89 7.121,7.33 33.601,-21.17 67.554,-41.9 101.902,-62.07 2.926,-1.72 5.871,-3.45 8.805,-5.16 13.265,-7.74 26.574,-15.38 39.964,-22.94 -2.23,-2.57 -4.46,-5.14 -6.691,-7.71"
         style="fill:#636c83;fill-opacity:1;fill-rule:nonzero;stroke:none"
         transform="matrix(0.13333333,0,0,-0.13333333,0,666.66667)" />
      <path
         id="path13"
         d="m 1150.08,2875.27 0.17,5 c -11.02,0.37 -22.05,0.56 -33.06,0.56 -11.01,0 -22.02,-0.19 -32.99,-0.56 h 0.01 c -10.02,-0.34 -20.78,-0.81 -31.06,-4.92 l 1.86,-4.64 -1.8,4.67 c -15.51,-6.05 -26.21,-18.48 -36.1,-29.79 -39.102,-45.04 -78.208,-89.98 -117.321,-135.02 l 3.774,-3.28 2.753,4.18 C 717.5,2835.89 541.113,2966.76 366.723,3115.63 l -3.246,-3.8 3.906,-3.13 c 102.59,128.34 205.285,256.37 308.09,384.5 44.195,55.11 88.386,110.22 132.687,165.33 h 0.004 c 27.02,33.71 54.156,67.48 84.328,97.97 v 0 c 22.071,22.28 45.742,42.68 70.582,61.53 l -3.019,3.98 -4.004,-2.99 c 165.209,-220.51 182.099,-519.78 186.909,-798.95 0.85,-48.33 1.59,-96.54 2.12,-144.85 l 5,0.05 0.17,5 -0.17,-5 5,0.06 c -0.53,48.34 -1.27,96.57 -2.12,144.91 -4.93,279.34 -21.32,580.79 -188.905,804.77 -0.801,1.07 -1.985,1.77 -3.305,1.95 -1.324,0.19 -2.652,-0.16 -3.719,-0.96 -25.176,-19.1 -49.203,-39.82 -71.64,-62.47 h -0.004 c -30.657,-30.98 -58,-65.03 -85.028,-98.74 h 0.008 C 756.063,3609.68 711.867,3554.57 667.672,3499.46 564.867,3371.33 462.168,3243.3 359.57,3114.95 c -1.683,-2.11 -1.394,-5.17 0.66,-6.93 174.723,-149.15 351.465,-280.28 540.583,-404.91 2.093,-1.37 4.882,-0.99 6.527,0.9 39.109,45.04 78.215,89.97 117.32,135.02 9.83,11.37 19.69,22.26 32.16,27.02 l 0.06,0.02 c 8.17,3.31 17.75,3.9 27.65,4.21 h 0.01 c 10.86,0.37 21.75,0.55 32.65,0.55 10.9,0 21.81,-0.18 32.72,-0.55 1.38,-0.05 2.69,0.46 3.67,1.42 0.98,0.96 1.52,2.25 1.5,3.63 l -5,-0.06"
         style="fill:#1c283e;fill-opacity:1;fill-rule:nonzero;stroke:none"
         transform="matrix(0.13333333,0,0,-0.13333333,0,666.66667)" />
      <path
         id="path14"
         d="m 2877.28,2875.27 c 21.94,0.75 43.88,0.75 65.71,0 9.96,-0.32 20.14,-0.85 29.36,-4.56 13.99,-5.4 24.26,-17.06 34.12,-28.4 39.11,-45.04 78.22,-89.98 117.33,-135.02 188.96,124.53 365.53,255.52 540.09,404.54 -102.6,128.34 -205.29,256.37 -308.09,384.5 -44.2,55.11 -88.4,110.22 -132.69,165.33 -27.03,33.71 -54.27,67.62 -84.69,98.36 -22.25,22.46 -46.1,43.02 -71.11,61.99 -166.39,-222.24 -183.03,-522.6 -187.91,-801.86 -0.85,-48.33 -1.59,-96.55 -2.12,-144.88"
         style="fill:#ffffff;fill-opacity:1;fill-rule:nonzero;stroke:none"
         transform="matrix(0.13333333,0,0,-0.13333333,0,666.66667)" />
      <path
         id="path15"
         d="m 3089.68,2836.94 c -34.05,48.07 -89.25,80.3 -147.87,86.31 -2.75,0.28 -5.2,-1.72 -5.48,-4.47 -0.28,-2.75 1.72,-5.2 4.47,-5.48 55.63,-5.66 108.44,-36.49 140.71,-82.14 1.6,-2.25 4.72,-2.79 6.97,-1.19 2.26,1.59 2.79,4.71 1.2,6.97"
         style="fill:#d0d7ef;fill-opacity:1;fill-rule:nonzero;stroke:none"
         transform="matrix(0.13333333,0,0,-0.13333333,0,666.66667)" />
      <path
         id="path16"
         d="m 3634.18,3165.41 c -189.04,-145.71 -390.09,-279.03 -600.98,-398.57 -2.4,-1.36 -3.24,-4.41 -1.88,-6.82 1.36,-2.4 4.41,-3.24 6.82,-1.88 211.28,119.77 412.73,253.35 602.15,399.35 2.19,1.69 2.59,4.83 0.91,7.01 -1.69,2.19 -4.83,2.6 -7.02,0.91"
         style="fill:#6b758d;fill-opacity:1;fill-rule:nonzero;stroke:none"
         transform="matrix(0.13333333,0,0,-0.13333333,0,666.66667)"
         clip-path="url(#clipPath17)" />
      <path
         id="path18"
         d="m 3599.02,3206.38 c -195.65,-140.53 -391.8,-281.36 -605.39,-398.61 -2.42,-1.33 -3.3,-4.37 -1.97,-6.79 1.33,-2.42 4.37,-3.31 6.79,-1.98 214.28,117.64 410.75,258.73 606.4,399.26 2.24,1.61 2.75,4.73 1.14,6.98 -1.61,2.24 -4.73,2.75 -6.97,1.14"
         style="fill:#6b758d;fill-opacity:1;fill-rule:nonzero;stroke:none"
         transform="matrix(0.13333333,0,0,-0.13333333,0,666.66667)"
         clip-path="url(#clipPath19)" />
      <path
         id="path20"
         d="m 3124.7,2713.88 c -18.14,20.89 -36.29,41.76 -54.43,62.63 52.93,30.5 105.24,61.87 156.87,94.09 18.4,-20.43 34.7,-39.12 47.74,-54.31 -49.29,-34.76 -99.3,-68.83 -150.18,-102.41 m -61.11,70.32 c -9.98,11.47 -19.95,22.95 -29.93,34.43 13.37,7.56 26.69,15.22 39.92,22.95 2.77,-3.38 5.41,-6.85 7.93,-10.42 0.98,-1.38 2.52,-2.11 4.09,-2.11 1,0 2.01,0.3 2.88,0.92 2.26,1.59 2.79,4.71 1.2,6.97 -2.36,3.33 -4.82,6.58 -7.38,9.75 36.04,21.19 71.63,42.99 106.84,65.25 10.82,-11.52 21.27,-22.87 31.19,-33.8 -51.59,-32.17 -103.86,-63.5 -156.74,-93.94 m -36.62,42.13 c -5.57,6.42 -11.15,12.84 -16.72,19.26 -9.89,11.31 -20.59,23.74 -36.1,29.79 v 0 c -10.25,4.08 -21,4.55 -31,4.89 -10.96,0.37 -21.96,0.56 -32.98,0.56 -9.27,0 -18.55,-0.13 -27.83,-0.4 0.52,46.57 1.24,93.05 2.06,139.64 0.57,33.14 1.31,66.55 2.45,100.1 60.84,-19.03 121.25,-43.9 161.53,-75.23 42.84,-33.32 90.84,-80.29 133.76,-125.59 -35.07,-22.16 -70.51,-43.84 -106.4,-64.91 -34.16,38.33 -82.74,63.56 -133.93,68.81 -0.17,0.01 -0.34,0.02 -0.51,0.02 -2.53,0 -4.71,-1.92 -4.97,-4.49 -0.28,-2.75 1.72,-5.2 4.47,-5.48 47.91,-4.87 93.73,-28.42 126.14,-64.02 -13.26,-7.73 -26.59,-15.39 -39.97,-22.95"
         style="fill:#eaeae7;fill-opacity:1;fill-rule:nonzero;stroke:none"
         transform="matrix(0.13333333,0,0,-0.13333333,0,666.66667)" />
      <path
         id="path21"
         d="m 3085.6,2829.05 c -1.57,0 -3.11,0.73 -4.09,2.11 -2.52,3.57 -5.16,7.04 -7.93,10.42 2.92,1.7 5.82,3.41 8.72,5.11 2.56,-3.17 5.02,-6.42 7.38,-9.75 1.59,-2.26 1.06,-5.38 -1.2,-6.97 -0.87,-0.62 -1.88,-0.92 -2.88,-0.92 m -18.66,20.23 c -32.41,35.6 -78.23,59.15 -126.14,64.02 -2.75,0.28 -4.75,2.73 -4.47,5.48 0.26,2.57 2.44,4.49 4.97,4.49 0.17,0 0.34,-0.01 0.51,-0.02 51.19,-5.25 99.77,-30.48 133.93,-68.81 -2.93,-1.73 -5.86,-3.44 -8.8,-5.16"
         style="fill:#bfc5db;fill-opacity:1;fill-rule:nonzero;stroke:none"
         transform="matrix(0.13333333,0,0,-0.13333333,0,666.66667)" />
      <path
         id="path22"
         d="m 3070.27,2776.51 c -2.23,2.56 -4.45,5.12 -6.68,7.69 52.88,30.44 105.15,61.77 156.74,93.94 2.3,-2.54 4.57,-5.05 6.81,-7.54 -51.63,-32.22 -103.94,-63.59 -156.87,-94.09"
         style="fill:#636c83;fill-opacity:1;fill-rule:nonzero;stroke:none"
         transform="matrix(0.13333333,0,0,-0.13333333,0,666.66667)" />
      <path
         id="path23"
         d="m 3033.66,2818.63 c -2.23,2.57 -4.46,5.14 -6.69,7.7 13.38,7.56 26.71,15.22 39.97,22.95 2.94,1.72 5.87,3.43 8.8,5.16 35.89,21.07 71.33,42.75 106.4,64.91 2.35,-2.48 4.68,-4.94 7,-7.41 -35.21,-22.26 -70.8,-44.06 -106.84,-65.25 -2.9,-1.7 -5.8,-3.41 -8.72,-5.11 -13.23,-7.73 -26.55,-15.39 -39.92,-22.95"
         style="fill:#636c83;fill-opacity:1;fill-rule:nonzero;stroke:none"
         transform="matrix(0.13333333,0,0,-0.13333333,0,666.66667)" />
      <path
         id="path24"
         d="m 2877.28,2875.27 0.17,-4.99 c 10.91,0.37 21.83,0.55 32.72,0.55 10.9,0 21.79,-0.18 32.65,-0.55 9.91,-0.31 19.5,-0.9 27.66,-4.21 l 0.07,-0.02 c 12.46,-4.76 22.32,-15.65 32.15,-27.02 39.11,-45.05 78.21,-89.98 117.32,-135.02 1.65,-1.89 4.44,-2.27 6.53,-0.9 189.11,124.63 365.86,255.76 540.58,404.91 2.06,1.76 2.35,4.82 0.66,6.93 -102.59,128.35 -205.29,256.38 -308.09,384.51 -44.2,55.11 -88.4,110.22 -132.7,165.33 h 0.01 c -27.03,33.71 -54.38,67.76 -85.03,98.74 h -0.01 c -22.43,22.65 -46.46,43.37 -71.64,62.47 -1.06,0.8 -2.39,1.15 -3.72,0.96 -1.32,-0.18 -2.5,-0.88 -3.3,-1.95 -167.58,-223.98 -183.97,-525.42 -188.91,-804.77 -0.85,-48.34 -1.59,-96.57 -2.12,-144.91 -0.01,-1.38 0.52,-2.67 1.51,-3.63 0.98,-0.96 2.29,-1.47 3.66,-1.42 l -0.17,4.99 5,-0.05 c 0.53,48.31 1.27,96.52 2.12,144.85 4.82,279.17 21.7,578.44 186.91,798.95 l -4,2.99 -3.02,-3.98 c 24.84,-18.85 48.51,-39.25 70.58,-61.53 v 0 c 30.17,-30.49 57.31,-64.26 84.33,-97.97 h 0.01 c 44.29,-55.11 88.49,-110.22 132.69,-165.33 102.8,-128.13 205.49,-256.15 308.08,-384.5 l 3.91,3.13 -3.25,3.8 c -174.39,-148.87 -350.78,-279.74 -539.59,-404.16 l 2.75,-4.18 3.77,3.28 c -39.11,45.04 -78.22,89.98 -117.32,135.02 -9.89,11.31 -20.59,23.74 -36.1,29.79 l -1.8,-4.67 1.87,4.64 c -10.28,4.11 -21.05,4.58 -31.07,4.92 -10.96,0.37 -21.96,0.56 -32.98,0.56 -11.01,0 -22.03,-0.19 -33.06,-0.56 l 0.17,-5 5,-0.05 -5,0.05"
         style="fill:#1c283e;fill-opacity:1;fill-rule:nonzero;stroke:none"
         transform="matrix(0.13333333,0,0,-0.13333333,0,666.66667)" />
      <path
         id="path25"
         d="m 2930.91,810.41 c -155.48,-20.351 -312.44,-27.34 -469.19,-34.441 -93.16,-4.129 -331.4,-3.289 -448.09,-3.289 -116.59,0 -354.83,-0.84 -447.99,3.289 -156.75,7.101 -313.71,14.09 -469.29,34.441 43.87,686.87 62.1,1375.98 53.73,2064.86 -0.53,48.33 -1.27,96.55 -2.12,144.88 -4.87,279.26 -21.51,579.62 -187.905,801.86 116.475,88.5 258.915,142.12 397.545,193.31 30.52,11.34 126.22,38.16 142.33,41.02 51.61,9.22 97.19,40.06 139.58,44.83 -16.53,-97.08 27.45,-199.03 100.15,-265.59 36.36,-33.28 80.23,-58.29 127.29,-75.04 47.05,-16.74 97.4,-25.11 146.68,-25.11 98.67,0 201.26,33.59 274.07,100.15 72.7,66.56 116.68,168.51 100.15,265.59 42.39,-4.77 87.97,-35.61 139.58,-44.83 16.11,-2.86 111.81,-29.68 142.23,-41.02 138.63,-51.19 281.17,-104.81 397.65,-193.31 -166.39,-222.24 -183.03,-522.6 -188.01,-801.86 -0.85,-48.33 -1.6,-96.55 -2.12,-144.88 -8.27,-688.88 9.96,-1377.99 53.73,-2064.86"
         style="fill:#ffffff;fill-opacity:1;fill-rule:nonzero;stroke:none"
         transform="matrix(0.13333333,0,0,-0.13333333,0,666.66667)" />
      <path
         id="path26"
         d="m 1494.97,3692.41 c 57.39,23.84 116.72,43.08 177.2,57.44 2.69,0.64 4.35,3.34 3.71,6.02 -0.64,2.69 -3.33,4.35 -6.02,3.71 -61,-14.48 -120.84,-33.89 -178.73,-57.93 -2.55,-1.06 -3.75,-3.99 -2.7,-6.54 1.06,-2.55 3.99,-3.76 6.54,-2.7"
         style="fill:#dfe1e7;fill-opacity:1;fill-rule:nonzero;stroke:none"
         transform="matrix(0.13333333,0,0,-0.13333333,0,666.66667)"
         clip-path="url(#clipPath27)" />
      <path
         id="path28"
         d="m 1136.23,2975.91 c 61.81,57.59 138.33,99.32 220.21,120.08 2.68,0.68 4.3,3.4 3.62,6.07 -0.68,2.68 -3.4,4.3 -6.07,3.62 -83.54,-21.18 -161.52,-63.71 -224.57,-122.45 -2.02,-1.88 -2.13,-5.05 -0.25,-7.07 1.88,-2.02 5.04,-2.13 7.06,-0.25"
         style="fill:#dfe1e7;fill-opacity:1;fill-rule:nonzero;stroke:none"
         transform="matrix(0.13333333,0,0,-0.13333333,0,666.66667)"
         clip-path="url(#clipPath29)" />
      <path
         id="path30"
         d="m 1131.45,2929.18 c 63.63,18.58 129.92,28.03 196.19,28.03 8.57,0 17.15,-0.16 25.71,-0.47 2.76,-0.11 5.08,2.05 5.18,4.81 0.1,2.76 -2.05,5.08 -4.81,5.18 -8.69,0.32 -17.38,0.48 -26.08,0.48 -67.22,0 -134.44,-9.59 -198.99,-28.43 -2.65,-0.77 -4.17,-3.55 -3.4,-6.2 0.77,-2.65 3.55,-4.17 6.2,-3.4"
         style="fill:#dfe1e7;fill-opacity:1;fill-rule:nonzero;stroke:none"
         transform="matrix(0.13333333,0,0,-0.13333333,0,666.66667)"
         clip-path="url(#clipPath31)" />
      <path
         id="path32"
         d="m 1188.94,1815.35 c 4.19,-0.04 8.38,-0.06 12.57,-0.06 95.04,0 190.07,10.22 282.94,30.43 2.7,0.59 4.41,3.25 3.82,5.95 -0.58,2.7 -3.25,4.41 -5.95,3.82 -92.16,-20.06 -186.49,-30.2 -280.81,-30.2 -4.16,0 -8.31,0.02 -12.47,0.06 -2.76,0.03 -5.03,-2.19 -5.05,-4.95 -0.03,-2.76 2.19,-5.02 4.95,-5.05"
         style="fill:#dfe1e7;fill-opacity:1;fill-rule:nonzero;stroke:none"
         transform="matrix(0.13333333,0,0,-0.13333333,0,666.66667)"
         clip-path="url(#clipPath33)" />
      <path
         id="path34"
         d="m 1174.58,1999.91 c 57.27,3.72 114.28,11.27 170.54,22.57 2.7,0.55 4.46,3.18 3.91,5.89 -0.54,2.7 -3.18,4.46 -5.88,3.91 -55.82,-11.21 -112.4,-18.7 -169.22,-22.39 -2.75,-0.18 -4.84,-2.55 -4.66,-5.31 0.18,-2.76 2.56,-4.85 5.31,-4.67"
         style="fill:#dfe1e7;fill-opacity:1;fill-rule:nonzero;stroke:none"
         transform="matrix(0.13333333,0,0,-0.13333333,0,666.66667)"
         clip-path="url(#clipPath35)" />
      <path
         id="path36"
         d="m 2536.2,3701.65 c -57.88,24.04 -117.72,43.45 -178.72,57.93 -2.69,0.64 -5.38,-1.02 -6.02,-3.71 -0.64,-2.68 1.02,-5.38 3.71,-6.02 60.47,-14.36 119.8,-33.6 177.2,-57.44 2.55,-1.06 5.48,0.15 6.53,2.7 1.06,2.55 -0.14,5.48 -2.7,6.54"
         style="fill:#dfe1e7;fill-opacity:1;fill-rule:nonzero;stroke:none"
         transform="matrix(0.13333333,0,0,-0.13333333,0,666.66667)"
         clip-path="url(#clipPath37)" />
      <path
         id="path38"
         d="m 2897.92,2983.23 c -63.05,58.74 -141.03,101.27 -224.56,122.45 -2.68,0.68 -5.4,-0.94 -6.08,-3.62 -0.68,-2.67 0.94,-5.39 3.62,-6.07 81.88,-20.76 158.4,-62.49 220.2,-120.08 2.02,-1.88 5.19,-1.77 7.07,0.25 1.88,2.02 1.77,5.19 -0.25,7.07 v 0"
         style="fill:#dfe1e7;fill-opacity:1;fill-rule:nonzero;stroke:none"
         transform="matrix(0.13333333,0,0,-0.13333333,0,666.66667)"
         clip-path="url(#clipPath39)" />
      <path
         id="path40"
         d="m 2898.69,2938.78 c -64.55,18.84 -131.77,28.43 -199,28.43 -8.69,0 -17.38,-0.16 -26.07,-0.48 -2.76,-0.1 -4.91,-2.42 -4.81,-5.18 0.1,-2.76 2.42,-4.92 5.18,-4.81 8.56,0.31 17.13,0.47 25.7,0.47 66.28,0 132.57,-9.45 196.2,-28.03 2.65,-0.77 5.43,0.75 6.2,3.4 0.77,2.65 -0.75,5.43 -3.4,6.2 v 0"
         style="fill:#dfe1e7;fill-opacity:1;fill-rule:nonzero;stroke:none"
         transform="matrix(0.13333333,0,0,-0.13333333,0,666.66667)"
         clip-path="url(#clipPath41)" />
      <path
         id="path42"
         d="m 2838.3,1825.35 c -4.16,-0.04 -8.32,-0.06 -12.48,-0.06 -94.31,0 -188.64,10.14 -280.8,30.2 -2.7,0.59 -5.36,-1.12 -5.95,-3.82 -0.59,-2.7 1.12,-5.36 3.82,-5.95 92.86,-20.21 187.9,-30.43 282.93,-30.43 4.19,0 8.39,0.02 12.58,0.06 2.76,0.03 4.98,2.29 4.95,5.05 -0.03,2.76 -2.29,4.98 -5.05,4.95"
         style="fill:#dfe1e7;fill-opacity:1;fill-rule:nonzero;stroke:none"
         transform="matrix(0.13333333,0,0,-0.13333333,0,666.66667)"
         clip-path="url(#clipPath43)" />
      <path
         id="path44"
         d="m 2853.41,2009.89 c -56.82,3.69 -113.4,11.18 -169.21,22.39 -2.71,0.55 -5.34,-1.21 -5.89,-3.91 -0.54,-2.71 1.21,-5.34 3.92,-5.89 56.25,-11.3 113.26,-18.85 170.53,-22.57 2.75,-0.18 5.13,1.91 5.31,4.67 0.18,2.76 -1.91,5.13 -4.66,5.31"
         style="fill:#dfe1e7;fill-opacity:1;fill-rule:nonzero;stroke:none"
         transform="matrix(0.13333333,0,0,-0.13333333,0,666.66667)"
         clip-path="url(#clipPath45)" />
      <path
         id="path46"
         d="m 2849.02,907.41 c -28.73,529.33 -51.84,1008.15 -51.84,1506.99 0,223.04 4.62,450.08 15.42,687.43 11.04,243.55 32.61,499.11 169.26,698.95 1.46,2.15 1.04,5.06 -0.97,6.7 -55.59,45.36 -115.68,72.54 -146.56,85.47 -26.87,11.23 -54.38,20.49 -81.75,29.71 -91.65,30.88 -183.37,61.78 -277.81,88.38 -2.65,0.74 -5.38,-0.78 -6.16,-3.41 -28.52,-97.56 -88.49,-185.75 -168.74,-248.12 -80.2,-62.35 -180.5,-97.04 -286.2,-97.04 -105.71,0 -206,34.69 -286.2,97.04 -80.26,62.37 -140.22,150.56 -168.75,248.12 -0.77,2.63 -3.51,4.15 -6.15,3.41 -94.44,-26.6 -186.16,-57.5 -277.81,-88.38 -27.37,-9.22 -54.88,-18.48 -81.75,-29.71 -30.87,-12.93 -90.97,-40.11 -146.56,-85.47 -2.01,-1.64 -2.43,-4.55 -0.97,-6.7 136.65,-199.84 158.22,-455.4 169.26,-698.95 10.8,-237.36 15.42,-464.39 15.42,-687.43 0,-498.84 -23.11,-977.66 -51.85,-1506.99 -0.15,-2.762 1.97,-5.109 4.72,-5.262 2.76,-0.148 5.12,1.961 5.27,4.723 28.73,529.359 51.86,1008.369 51.86,1507.529 0,223.17 -4.62,450.37 -15.43,687.89 -11.13,243.73 -32.41,501.24 -170.99,704.13 l -4.13,-2.82 3.16,-3.87 c 54.38,44.39 113.62,71.24 144.1,83.99 26.43,11.05 53.71,20.25 81.08,29.47 91.65,30.87 183.21,61.71 277.33,88.22 l -1.35,4.81 -4.8,-1.4 c 29.13,-99.62 90.26,-189.5 172.2,-253.21 81.97,-63.73 184.45,-99.14 292.34,-99.14 107.89,0 210.36,35.41 292.34,99.14 81.94,63.71 143.07,153.59 172.2,253.21 l -4.8,1.4 -1.35,-4.81 c 94.12,-26.51 185.68,-57.35 277.33,-88.22 27.37,-9.22 54.65,-18.42 81.08,-29.47 30.48,-12.75 89.72,-39.6 144.1,-83.99 l 3.16,3.87 -4.13,2.82 c -138.58,-202.89 -159.86,-460.4 -170.99,-704.13 -10.81,-237.52 -15.43,-464.71 -15.43,-687.89 0,-499.16 23.12,-978.17 51.86,-1507.529 0.15,-2.762 2.51,-4.871 5.26,-4.723 2.76,0.153 4.88,2.5 4.72,5.262"
         style="fill:#6b758d;fill-opacity:1;fill-rule:nonzero;stroke:none"
         transform="matrix(0.13333333,0,0,-0.13333333,0,666.66667)"
         clip-path="url(#clipPath47)" />
      <path
         id="path48"
         d="m 1082.71,916.059 c 308.18,-47.77 619.97,-47.989 930.96,-47.989 310.98,0 622.78,0.219 930.96,47.989 2.73,0.421 4.6,2.972 4.18,5.703 -0.43,2.726 -2.98,4.597 -5.71,4.179 -307.17,-47.621 -618.45,-47.882 -929.43,-47.871 -310.98,-0.011 -622.26,0.25 -929.43,47.871 -2.73,0.418 -5.29,-1.453 -5.71,-4.179 -0.42,-2.731 1.45,-5.282 4.18,-5.711 v 0.008"
         style="fill:#6b758d;fill-opacity:1;fill-rule:nonzero;stroke:none"
         transform="matrix(0.13333333,0,0,-0.13333333,0,666.66667)"
         clip-path="url(#clipPath49)" />
      <path
         id="path50"
         d="m 2947.59,874.469 c -307.64,-29.418 -642.02,-51.41 -933.92,-51.41 -1.32,0 -2.61,-0.539 -3.54,-1.469 -0.93,-0.93 -1.46,-2.219 -1.46,-3.531 0,-1.317 0.53,-2.61 1.46,-3.539 0.93,-0.93 2.22,-1.461 3.54,-1.461 h 0.01 c 1.31,0 2.6,0.531 3.53,1.461 0.93,0.929 1.47,2.222 1.47,3.539 0,1.312 -0.54,2.601 -1.47,3.531 -0.93,0.93 -2.22,1.469 -3.53,1.469 -291.91,0 -626.29,21.992 -933.94,51.41 -2.75,0.261 -5.19,-1.75 -5.45,-4.5 -0.26,-2.75 1.75,-5.188 4.5,-5.449 307.86,-29.45 642.49,-51.461 934.89,-51.461 1.31,0 2.6,0.531 3.53,1.461 0.93,0.929 1.47,2.222 1.47,3.539 0,1.312 -0.54,2.601 -1.47,3.531 -0.93,0.93 -2.22,1.469 -3.53,1.469 h -0.01 c -1.32,0 -2.61,-0.539 -3.54,-1.469 -0.93,-0.93 -1.46,-2.219 -1.46,-3.531 0,-1.317 0.53,-2.61 1.46,-3.539 0.93,-0.93 2.22,-1.461 3.54,-1.461 292.39,0 627.01,22.011 934.88,51.461 2.74,0.261 4.76,2.699 4.5,5.449 -0.26,2.75 -2.71,4.761 -5.45,4.5 h -0.01"
         style="fill:#6b758d;fill-opacity:1;fill-rule:nonzero;stroke:none"
         transform="matrix(0.13333333,0,0,-0.13333333,0,666.66667)"
         clip-path="url(#clipPath51)" />
      <path
         id="path52"
         d="m 1146.92,2870.27 h 3.2188 v 200.262 h -3.2188 z"
         style="fill:#192438;fill-opacity:1;fill-rule:nonzero;stroke:none"
         transform="matrix(0.13333333,0,0,-0.13333333,0,666.66667)"
         clip-path="url(#clipPath53)" />
      <path
         id="path54"
         d="m 1178.37,800.992 c -27.37,2.817 -54.72,5.86 -82.02,9.418 v 0 c 1.11,17.36 2.2,34.77 3.28,52.129 26.8,-2.527 53.8,-4.988 80.94,-7.387 -0.71,-17.992 -1.44,-36.05 -2.2,-54.16 m 2.59,64.16 c -27.08,2.399 -53.97,4.86 -80.71,7.368 0.83,13.511 1.65,27 2.46,40.5 26.54,-3.93 53.09,-7.52 79.67,-10.801 -0.46,-12.309 -0.94,-24.699 -1.42,-37.067 m -2.36,47.61 c -25.13,3.136 -50.21,6.547 -75.29,10.277 32.33,540.881 48.73,1083.001 48.75,1625.281 0.01,107.3 -0.63,214.65 -1.92,321.95 -0.02,1.69 -0.04,3.32 -0.06,5 -0.21,19.64 -0.46,39.26 -0.74,58.88 10.8,2.84 21.67,5.42 32.59,7.74 7.16,-171.4 18.1,-500.13 19.38,-929.93 -9.12,-0.78 -18.24,-1.48 -27.38,-2.07 -2.75,-0.18 -4.84,-2.55 -4.66,-5.31 0.17,-2.65 2.37,-4.68 4.98,-4.68 0.11,0 0.22,0.01 0.33,0.01 8.93,0.58 17.85,1.25 26.76,2.02 0.15,-57.13 0.13,-116.1 -0.09,-176.64 -4.07,0 -8.14,0.02 -12.21,0.06 -0.02,0 -0.04,0 -0.05,0 -2.74,0 -4.98,-2.21 -5,-4.95 -0.03,-2.76 2.19,-5.02 4.95,-5.05 4.09,-0.04 8.18,-0.06 12.27,-0.06 -0.87,-213.21 -4.25,-446.37 -11.5,-694.06 -3.58,-68.71 -7.29,-138.148 -11.11,-208.468 m -29.41,2031.678 c -0.21,14.19 -0.43,28.36 -0.66,42.55 9.79,8.53 19.91,16.68 30.34,24.43 0.77,-16.64 1.67,-36.51 2.64,-59.4 -10.83,-2.27 -21.61,-4.8 -32.32,-7.58 m -0.88,55.53 c -0.11,6.73 -0.23,13.45 -0.35,20.18 -0.29,16.72 -0.62,33.53 -1.03,50.38 9.42,1.38 19.02,2.54 28.8,3.44 0,0 0.98,-17.38 2.57,-50.57 -10.28,-7.44 -20.29,-15.25 -29.99,-23.43"
         style="fill:#eaeae7;fill-opacity:1;fill-rule:nonzero;stroke:none"
         transform="matrix(0.13333333,0,0,-0.13333333,0,666.66667)" />
      <path
         id="path55"
         d="m 1148.53,2986.99 c -0.07,4.33 -0.15,8.65 -0.22,12.98 v 0 c 9.7,8.18 19.71,15.99 29.99,23.43 0.18,-3.79 0.37,-7.79 0.57,-11.98 -10.43,-7.75 -20.55,-15.9 -30.34,-24.43 v 0"
         style="fill:#cdcfd4;fill-opacity:1;fill-rule:nonzero;stroke:none"
         transform="matrix(0.13333333,0,0,-0.13333333,0,666.66667)" />
      <path
         id="path56"
         d="m 1149.34,2934.15 c -0.05,3.43 -0.1,6.86 -0.15,10.29 v 0 c 10.71,2.78 21.49,5.31 32.32,7.58 0.14,-3.32 0.28,-6.67 0.42,-10.13 -10.92,-2.32 -21.79,-4.9 -32.59,-7.74 v 0"
         style="fill:#cdcfd4;fill-opacity:1;fill-rule:nonzero;stroke:none"
         transform="matrix(0.13333333,0,0,-0.13333333,0,666.66667)" />
      <path
         id="path57"
         d="m 1201.21,1815.29 c -4.09,0 -8.18,0.02 -12.27,0.06 -2.76,0.03 -4.98,2.29 -4.95,5.05 0.02,2.74 2.26,4.95 5,4.95 0.01,0 0.03,0 0.05,0 4.07,-0.04 8.14,-0.06 12.21,-0.06 -0.02,-3.35 -0.03,-6.64 -0.04,-10"
         style="fill:#cdcfd4;fill-opacity:1;fill-rule:nonzero;stroke:none"
         transform="matrix(0.13333333,0,0,-0.13333333,0,666.66667)" />
      <path
         id="path58"
         d="m 1174.25,1999.9 c -2.61,0 -4.81,2.03 -4.98,4.68 -0.18,2.76 1.91,5.13 4.66,5.31 9.14,0.59 18.26,1.29 27.38,2.07 0.01,-3.33 0.02,-6.69 0.03,-10.03 -8.91,-0.77 -17.83,-1.44 -26.76,-2.02 -0.11,0 -0.22,-0.01 -0.33,-0.01"
         style="fill:#cdcfd4;fill-opacity:1;fill-rule:nonzero;stroke:none"
         transform="matrix(0.13333333,0,0,-0.13333333,0,666.66667)" />
      <path
         id="path59"
         d="m 1182.76,912.25 c -1.37,0.172 -2.78,0.34 -4.16,0.512 3.82,70.32 7.53,139.758 11.11,208.468 -2.01,-68.58 -4.32,-138.308 -6.95,-208.98"
         style="fill:#636c83;fill-opacity:1;fill-rule:nonzero;stroke:none"
         transform="matrix(0.13333333,0,0,-0.13333333,0,666.66667)" />
      <path
         id="path60"
         d="m 1182.38,902.219 c -26.58,3.281 -53.13,6.871 -79.67,10.801 0.2,3.32 0.4,6.71 0.6,10.019 25.08,-3.73 50.16,-7.141 75.29,-10.277 1.38,-0.172 2.79,-0.34 4.16,-0.512 -0.13,-3.328 -0.25,-6.699 -0.38,-10.031"
         style="fill:#636c83;fill-opacity:1;fill-rule:nonzero;stroke:none"
         transform="matrix(0.13333333,0,0,-0.13333333,0,666.66667)" />
      <path
         id="path61"
         d="m 1180.57,855.152 c -27.14,2.399 -54.14,4.86 -80.94,7.387 0.21,3.352 0.41,6.633 0.62,9.981 26.74,-2.508 53.63,-4.969 80.71,-7.368 -0.13,-3.343 -0.26,-6.652 -0.39,-10"
         style="fill:#636c83;fill-opacity:1;fill-rule:nonzero;stroke:none"
         transform="matrix(0.13333333,0,0,-0.13333333,0,666.66667)" />
      <path
         id="path62"
         d="m 2877.12,2870.28 v 0 c 0.02,1.68 0.04,3.31 0.06,4.99 0.21,19.65 0.46,39.27 0.74,58.9 v 0 c 0.05,3.43 0.1,6.86 0.15,10.29 v 0 c 0.21,14.2 0.43,28.4 0.66,42.6 v 0 c 0.07,4.32 0.15,8.65 0.22,12.98 v 0 c 0.11,6.7 0.23,13.4 0.35,20.11 v 0 0 c -0.85,-48.33 -1.6,-96.55 -2.12,-144.88 -0.02,-1.68 -0.04,-3.31 -0.06,-4.99 m 2.77,180.17 c 0.5,23.65 1.13,47.42 1.95,71.27 0.01,-0.01 0.01,-0.01 0.01,-0.01 -0.82,-23.84 -1.45,-47.61 -1.96,-71.26"
         style="fill:#192438;fill-opacity:1;fill-rule:nonzero;stroke:none"
         transform="matrix(0.13333333,0,0,-0.13333333,0,666.66667)" />
      <path
         id="path63"
         d="m 2694.65,788.09 c -1.72,16.262 -3.59,34.301 -5.57,54.058 80.39,6.141 160.28,13.012 238.56,20.383 1.07,-17.359 2.16,-34.761 3.27,-52.121 v 0 c -78.45,-10.258 -157.27,-17.121 -236.26,-22.32 m -6.56,64.012 c -1.08,10.859 -2.19,22.148 -3.33,33.957 53.3,4.273 106.52,9.55 159.65,16.089 0.16,0.012 0.32,0.032 0.47,0.063 26.59,3.281 53.15,6.867 79.68,10.801 0.81,-13.5 1.63,-26.992 2.46,-40.492 -78.39,-7.391 -158.43,-14.27 -238.93,-20.418 m -4.28,43.91 c -19.45,203.588 -46.13,538.708 -57.01,934.248 56.44,-8.53 113.44,-13.44 170.52,-14.66 9.38,-293.51 24.43,-589.96 41.47,-904.061 -51.56,-6.277 -103.25,-11.379 -154.98,-15.527 m 164.92,16.75 c -17.01,313.668 -32.03,609.638 -41.4,902.658 6.16,-0.08 12.33,-0.13 18.49,-0.13 4.19,0 8.39,0.02 12.58,0.06 2.76,0.03 4.98,2.29 4.95,5.05 -0.03,2.74 -2.26,4.95 -5,4.95 -0.02,0 -0.03,0 -0.05,0 -4.16,-0.04 -8.32,-0.06 -12.48,-0.06 -6.26,0 -12.54,0.05 -18.81,0.14 -1.88,59.64 -3.53,119.24 -4.91,178.78 16.85,-1.77 33.74,-3.2 50.66,-4.3 0.11,0 0.22,-0.01 0.33,-0.01 2.61,0 4.81,2.03 4.98,4.68 0.18,2.76 -1.91,5.13 -4.66,5.31 -17.21,1.12 -34.39,2.58 -51.54,4.4 -3.01,132.83 -4.69,265.75 -4.69,400.11 0,174.74 2.83,351.94 9.26,534.63 24.06,-3.71 47.93,-8.67 71.48,-14.86 -0.28,-19.63 -0.53,-39.25 -0.74,-58.9 -0.02,-1.68 -0.04,-3.31 -0.06,-4.99 -1.25,-105.96 -1.88,-211.97 -1.88,-317.93 -0.01,-543.62 16.39,-1087.1 48.72,-1629.319 -25.06,-3.722 -50.11,-7.133 -75.23,-10.269 M 2797,1825.61 c -57.07,1.25 -114.05,6.2 -170.48,14.81 -10.86,405.87 -4.96,874.27 42.4,1328.93 0,0 60.31,-8.43 135.65,-26.6 -0.7,-13.52 -1.34,-27.01 -1.96,-40.46 -0.72,-15.96 -1.42,-31.88 -2.09,-47.75 -39.88,22.57 -82.73,39.87 -127.16,51.14 -0.41,0.11 -0.83,0.16 -1.24,0.16 -2.23,0 -4.26,-1.51 -4.84,-3.78 -0.68,-2.67 0.94,-5.39 3.62,-6.07 45.21,-11.46 88.78,-29.32 129.14,-52.7 -1.15,-27.73 -2.21,-55.29 -3.2,-82.76 -32.18,4.44 -64.66,6.68 -97.15,6.68 -8.69,0 -17.38,-0.16 -26.07,-0.48 -2.76,-0.1 -4.91,-2.42 -4.81,-5.18 0.1,-2.7 2.31,-4.82 4.99,-4.82 0.06,0 0.13,0 0.19,0.01 8.56,0.31 17.13,0.47 25.7,0.47 32.37,0 64.73,-2.25 96.79,-6.72 -6.45,-183.21 -9.3,-360.89 -9.3,-536.09 0,-133.99 1.67,-266.56 4.66,-399.01 -36.1,4.1 -72.03,9.74 -107.64,16.89 -0.34,0.07 -0.67,0.1 -0.99,0.1 -2.34,0 -4.42,-1.64 -4.9,-4.01 -0.54,-2.71 1.21,-5.34 3.92,-5.89 36.34,-7.3 73,-13.04 109.84,-17.18 1.38,-59.87 3.04,-119.72 4.93,-179.69 m 81.07,1118.85 c -23.49,6.09 -47.29,10.97 -71.28,14.63 0.94,26.02 1.94,52.14 3.02,78.39 24.35,-14.84 47.43,-31.7 68.92,-50.42 -0.23,-14.2 -0.45,-28.4 -0.66,-42.6 m 0.88,55.58 c -21.5,18.11 -44.5,34.45 -68.66,48.83 0.73,17.61 1.51,35.25 2.31,52.96 0.58,12.8 1.19,25.65 1.85,38.51 21.76,-5.41 44.57,-11.61 67.4,-18.63 -0.83,-23.84 -1.46,-47.61 -1.96,-71.26 -0.22,-10.13 -0.41,-20.23 -0.59,-30.3 v 0 c -0.12,-6.71 -0.24,-13.41 -0.35,-20.11"
         style="fill:#eaeae7;fill-opacity:1;fill-rule:nonzero;stroke:none"
         transform="matrix(0.13333333,0,0,-0.13333333,0,666.66667)" />
      <path
         id="path64"
         d="m 2878.73,2987.06 v 0 c -21.49,18.72 -44.57,35.58 -68.92,50.42 0.16,3.78 0.32,7.6 0.48,11.39 24.16,-14.38 47.16,-30.72 68.66,-48.83 v 0 c -0.07,-4.33 -0.15,-8.66 -0.22,-12.98 m -78.69,56.23 c -40.36,23.38 -83.93,41.24 -129.14,52.7 -2.68,0.68 -4.3,3.4 -3.62,6.07 0.58,2.27 2.61,3.78 4.84,3.78 0.41,0 0.83,-0.05 1.24,-0.16 44.43,-11.27 87.28,-28.57 127.16,-51.14 -0.16,-3.75 -0.32,-7.51 -0.48,-11.25"
         style="fill:#cdcfd4;fill-opacity:1;fill-rule:nonzero;stroke:none"
         transform="matrix(0.13333333,0,0,-0.13333333,0,666.66667)" />
      <path
         id="path65"
         d="m 2877.92,2934.17 v 0 c -23.55,6.19 -47.42,11.15 -71.48,14.86 0.12,3.36 0.23,6.7 0.35,10.06 23.99,-3.66 47.79,-8.54 71.28,-14.63 v 0 c -0.05,-3.43 -0.1,-6.86 -0.15,-10.29 m -81.44,16.32 c -32.06,4.47 -64.42,6.72 -96.79,6.72 -8.57,0 -17.14,-0.16 -25.7,-0.47 -0.06,-0.01 -0.13,-0.01 -0.19,-0.01 -2.68,0 -4.89,2.12 -4.99,4.82 -0.1,2.76 2.05,5.08 4.81,5.18 8.69,0.32 17.38,0.48 26.07,0.48 32.49,0 64.97,-2.24 97.15,-6.68 -0.12,-3.35 -0.24,-6.7 -0.36,-10.04"
         style="fill:#cdcfd4;fill-opacity:1;fill-rule:nonzero;stroke:none"
         transform="matrix(0.13333333,0,0,-0.13333333,0,666.66667)" />
      <path
         id="path66"
         d="m 2825.82,1815.29 c -6.16,0 -12.33,0.05 -18.49,0.13 -0.11,3.35 -0.22,6.66 -0.32,10.01 6.27,-0.09 12.55,-0.14 18.81,-0.14 4.16,0 8.32,0.02 12.48,0.06 0.02,0 0.03,0 0.05,0 2.74,0 4.97,-2.21 5,-4.95 0.03,-2.76 -2.19,-5.02 -4.95,-5.05 -4.19,-0.04 -8.39,-0.06 -12.58,-0.06 m -28.5,0.31 c -57.08,1.22 -114.08,6.13 -170.52,14.66 -0.09,3.35 -0.19,6.8 -0.28,10.16 56.43,-8.61 113.41,-13.56 170.48,-14.81 0.1,-3.35 0.21,-6.66 0.32,-10.01"
         style="fill:#cdcfd4;fill-opacity:1;fill-rule:nonzero;stroke:none"
         transform="matrix(0.13333333,0,0,-0.13333333,0,666.66667)" />
      <path
         id="path67"
         d="m 2853.09,1999.9 c -0.11,0 -0.22,0.01 -0.33,0.01 -16.92,1.1 -33.81,2.53 -50.66,4.3 -0.08,3.37 -0.16,6.7 -0.23,10.08 17.15,-1.82 34.33,-3.28 51.54,-4.4 2.75,-0.18 4.84,-2.55 4.66,-5.31 -0.17,-2.65 -2.37,-4.68 -4.98,-4.68 m -61.02,5.4 c -36.84,4.14 -73.5,9.88 -109.84,17.18 -2.71,0.55 -4.46,3.18 -3.92,5.89 0.48,2.37 2.56,4.01 4.9,4.01 0.32,0 0.65,-0.03 0.99,-0.1 35.61,-7.15 71.54,-12.79 107.64,-16.89 0.08,-3.38 0.15,-6.72 0.23,-10.09"
         style="fill:#cdcfd4;fill-opacity:1;fill-rule:nonzero;stroke:none"
         transform="matrix(0.13333333,0,0,-0.13333333,0,666.66667)" />
      <path
         id="path68"
         d="m 2844.41,902.148 c 0.16,0.024 0.32,0.043 0.47,0.063 -0.15,-0.031 -0.31,-0.051 -0.47,-0.063 m -5.62,9.391 c -17.04,314.101 -32.09,610.551 -41.47,904.061 -0.11,3.35 -0.22,6.66 -0.32,10.01 -1.89,59.97 -3.55,119.82 -4.93,179.69 -0.08,3.37 -0.15,6.71 -0.23,10.09 -2.99,132.45 -4.66,265.02 -4.66,399.01 0,175.2 2.85,352.88 9.3,536.09 0.12,3.34 0.24,6.69 0.36,10.04 0.99,27.47 2.05,55.03 3.2,82.76 0.16,3.74 0.32,7.5 0.48,11.25 0.67,15.87 1.37,31.79 2.09,47.75 0.62,13.45 1.26,26.94 1.96,40.46 3.26,-0.78 6.56,-1.59 9.88,-2.41 -0.66,-12.86 -1.27,-25.71 -1.85,-38.51 -0.8,-17.71 -1.58,-35.35 -2.31,-52.96 -0.16,-3.79 -0.32,-7.61 -0.48,-11.39 -1.08,-26.25 -2.08,-52.37 -3.02,-78.39 -0.12,-3.36 -0.23,-6.7 -0.35,-10.06 -6.43,-182.69 -9.26,-359.89 -9.26,-534.63 0,-134.36 1.68,-267.28 4.69,-400.11 0.07,-3.38 0.15,-6.71 0.23,-10.08 1.38,-59.54 3.03,-119.14 4.91,-178.78 0.1,-3.35 0.21,-6.66 0.32,-10.01 9.37,-293.02 24.39,-588.99 41.4,-902.658 -3.3,-0.41 -6.63,-0.821 -9.94,-1.223"
         style="fill:#636c83;fill-opacity:1;fill-rule:nonzero;stroke:none"
         transform="matrix(0.13333333,0,0,-0.13333333,0,666.66667)" />
      <path
         id="path69"
         d="m 2684.76,886.059 c -0.31,3.261 -0.63,6.621 -0.95,9.953 51.73,4.148 103.42,9.25 154.98,15.527 3.31,0.402 6.64,0.813 9.94,1.223 25.12,3.136 50.17,6.547 75.23,10.269 0.2,-3.312 0.4,-6.699 0.6,-10.019 -26.53,-3.934 -53.09,-7.52 -79.68,-10.801 -0.15,-0.02 -0.31,-0.039 -0.47,-0.063 -53.13,-6.539 -106.35,-11.816 -159.65,-16.089"
         style="fill:#636c83;fill-opacity:1;fill-rule:nonzero;stroke:none"
         transform="matrix(0.13333333,0,0,-0.13333333,0,666.66667)" />
      <path
         id="path70"
         d="m 2689.08,842.148 c -0.33,3.262 -0.66,6.602 -0.99,9.954 80.5,6.148 160.54,13.027 238.93,20.418 0.21,-3.36 0.41,-6.629 0.62,-9.989 -78.28,-7.371 -158.17,-14.242 -238.56,-20.383"
         style="fill:#636c83;fill-opacity:1;fill-rule:nonzero;stroke:none"
         transform="matrix(0.13333333,0,0,-0.13333333,0,666.66667)" />
      <path
         id="path71"
         d="m 2930.91,810.41 -0.65,4.961 c -155.2,-20.32 -312.01,-27.312 -468.76,-34.41 -65.78,-2.922 -204.66,-3.352 -321.47,-3.352 -48.05,0 -92.39,0.082 -126.4,0.082 -33.99,0 -78.3,-0.082 -126.34,-0.082 -116.76,0 -255.65,0.43 -321.43,3.352 h 0.01 c -156.75,7.098 -313.58,14.09 -468.87,34.41 l -0.65,-4.961 4.99,-0.32 c 36.96,578.61 55.72,1158.79 55.72,1739.1 0,108.72 -0.66,217.43 -1.98,326.14 v 0 c -0.53,48.34 -1.27,96.57 -2.12,144.91 -4.93,279.35 -21.32,580.79 -188.905,804.77 l -4,-3 3.023,-3.98 c 115.672,87.91 257.632,141.44 396.252,192.61 h 0.01 c 14.94,5.56 46.53,15.11 76.2,23.57 14.85,4.23 29.25,8.2 40.93,11.28 11.63,3.07 20.69,5.29 24.34,5.93 v 0 c 26.51,4.74 51.12,14.93 74.26,24.38 23.13,9.47 44.8,18.15 65,20.4 l -0.56,4.97 -4.93,0.84 c -2.39,-14.06 -3.54,-28.22 -3.54,-42.34 0.03,-85.46 41.92,-169.77 105.25,-227.78 36.91,-33.79 81.37,-59.11 128.98,-76.06 47.62,-16.94 98.51,-25.4 148.36,-25.41 99.78,0.02 203.49,33.91 277.44,101.47 h 0.01 c 63.32,58.01 105.21,142.32 105.24,227.78 0.01,14.12 -1.14,28.28 -3.54,42.34 l -4.93,-0.84 -0.56,-4.97 c 20.21,-2.25 41.87,-10.93 65,-20.4 23.14,-9.45 47.76,-19.64 74.26,-24.38 h 0.01 c 3.64,-0.64 12.7,-2.86 24.34,-5.93 34.98,-9.24 94.64,-26.5 117.02,-34.85 h 0.01 c 138.61,-51.17 280.69,-104.7 396.35,-192.61 l 3.03,3.98 -4,3 c -167.58,-223.98 -183.97,-525.42 -189.01,-804.77 -0.85,-48.34 -1.59,-96.57 -2.12,-144.91 v 0 c -1.3,-107.79 -1.94,-215.59 -1.94,-323.39 0,-581.22 18.75,-1162.33 55.68,-1741.85 l 4.99,0.32 -0.65,4.961 0.65,-4.961 4.99,0.32 c -36.92,579.31 -55.66,1160.2 -55.66,1741.21 0,107.76 0.64,215.52 1.94,323.27 v 0.01 c 0.52,48.31 1.27,96.52 2.12,144.84 4.92,279.18 21.8,578.45 187.01,798.96 1.65,2.19 1.21,5.31 -0.98,6.97 -117.28,89.09 -260.3,142.81 -398.93,194.03 l 0.01,-0.01 c -15.54,5.79 -47.04,15.31 -76.86,23.81 -14.9,4.25 -29.35,8.23 -41.1,11.34 -11.79,3.11 -20.73,5.32 -25.14,6.11 v 0 c -25.11,4.47 -49.08,14.32 -72.23,23.78 -23.16,9.45 -45.48,18.57 -67.67,21.09 -1.56,0.18 -3.11,-0.39 -4.19,-1.53 -1.08,-1.15 -1.56,-2.73 -1.3,-4.28 2.3,-13.49 3.4,-27.08 3.41,-40.66 0.03,-82.14 -40.56,-164.18 -102.01,-220.4 h 0.01 c -71.68,-65.55 -173.14,-98.86 -270.7,-98.85 -48.72,0 -98.52,8.29 -145.01,24.83 -46.5,16.55 -89.79,41.25 -125.58,74.02 -61.45,56.22 -102.04,138.26 -102,220.4 0,13.58 1.1,27.17 3.4,40.66 0.26,1.55 -0.22,3.13 -1.29,4.28 -1.08,1.14 -2.64,1.71 -4.2,1.53 -22.19,-2.52 -44.5,-11.64 -67.66,-21.09 -23.15,-9.46 -47.13,-19.31 -72.24,-23.78 h 0.01 c -4.42,-0.79 -13.36,-3 -25.15,-6.11 -35.3,-9.33 -94.73,-26.49 -118.05,-35.14 h 0.01 c -138.65,-51.22 -281.56,-104.94 -398.843,-194.03 -2.183,-1.66 -2.621,-4.78 -0.976,-6.97 165.209,-220.51 182.099,-519.78 186.909,-798.96 0.85,-48.32 1.59,-96.53 2.12,-144.84 v -0.01 c 1.32,-108.67 1.98,-217.34 1.98,-326.02 0,-580.09 -18.75,-1160.06 -55.7,-1738.46 -0.17,-2.64 1.72,-4.929 4.34,-5.281 155.86,-20.379 312.97,-27.379 469.71,-34.48 h 0.01 c 66.23,-2.93 205.04,-3.348 321.87,-3.36 48.05,0 92.37,0.082 126.34,0.082 34,0 78.34,-0.082 126.4,-0.082 116.87,0.012 255.68,0.43 321.92,3.36 156.75,7.101 313.84,14.101 469.61,34.48 2.6,0.34 4.5,2.66 4.34,5.281 l -4.99,-0.32"
         style="fill:#1c283e;fill-opacity:1;fill-rule:nonzero;stroke:none"
         transform="matrix(0.13333333,0,0,-0.13333333,0,666.66667)" />
      <path
         id="path72"
         d="m 2287.7,3835.58 c -72.81,-66.56 -175.4,-100.16 -274.07,-100.16 -49.28,0 -99.63,8.38 -146.68,25.12 -47.06,16.75 -90.93,41.76 -127.29,75.04 -72.7,66.56 -116.68,168.51 -100.15,265.59 113.3,-50.12 258.92,-69.94 374.12,-69.94 115.31,0 260.93,19.82 374.22,69.94 16.53,-97.08 -27.44,-199.03 -100.15,-265.59"
         style="fill:#c4d4d2;fill-opacity:1;fill-rule:nonzero;stroke:none"
         transform="matrix(0.13333333,0,0,-0.13333333,0,666.66667)" />
      <path
         id="path73"
         d="m 2402.25,4045.63 c -119.41,-57.23 -257.74,-79.63 -388.57,-79.62 -130.85,-0.01 -269.18,22.39 -388.59,79.62 -2.5,1.19 -5.48,0.14 -6.67,-2.35 -1.2,-2.49 -0.15,-5.48 2.34,-6.67 121.23,-58.07 260.94,-80.6 392.92,-80.6 131.96,0 271.66,22.53 392.89,80.6 2.49,1.19 3.55,4.18 2.35,6.67 -1.19,2.49 -4.18,3.54 -6.67,2.35"
         style="fill:#6b758d;fill-opacity:1;fill-rule:nonzero;stroke:none"
         transform="matrix(0.13333333,0,0,-0.13333333,0,666.66667)"
         clip-path="url(#clipPath74)" />
      <path
         id="path75"
         d="m 2287.7,3835.58 -3.37,3.69 c -71.68,-65.55 -173.14,-98.86 -270.7,-98.85 -48.72,0 -98.52,8.29 -145.01,24.83 -46.5,16.55 -89.79,41.25 -125.58,74.02 -61.45,56.22 -102.04,138.26 -102,220.4 0,13.58 1.1,27.17 3.4,40.66 l -4.93,0.84 -2.02,-4.57 c 114.29,-50.54 260.37,-70.35 376.14,-70.37 115.88,0.02 261.95,19.83 376.24,70.37 l -2.02,4.57 -4.93,-0.84 c 2.3,-13.49 3.4,-27.08 3.4,-40.66 0.04,-82.14 -40.55,-164.18 -102,-220.4 h 0.01 l 3.37,-3.69 3.38,-3.69 c 63.32,58.01 105.21,142.32 105.24,227.78 0,14.12 -1.14,28.28 -3.54,42.34 -0.26,1.51 -1.21,2.84 -2.56,3.57 -1.36,0.72 -2.99,0.79 -4.39,0.17 -112.3,-49.72 -257.47,-69.55 -372.2,-69.52 -114.63,-0.03 -259.8,19.8 -372.1,69.52 -1.4,0.62 -3.03,0.55 -4.38,-0.17 -1.36,-0.73 -2.31,-2.06 -2.57,-3.57 -2.39,-14.06 -3.54,-28.22 -3.54,-42.34 0.03,-85.46 41.92,-169.77 105.25,-227.78 36.91,-33.79 81.37,-59.11 128.98,-76.06 47.62,-16.94 98.51,-25.4 148.36,-25.41 99.78,0.02 203.49,33.91 277.44,101.47 h 0.01 l -3.38,3.69"
         style="fill:#1c283e;fill-opacity:1;fill-rule:nonzero;stroke:none"
         transform="matrix(0.13333333,0,0,-0.13333333,0,666.66667)" />
      <path
         id="path76"
         d="m 1891.33,3907.7 h 244.71 v -47.07 h -244.71 v 47.07"
         style="fill:#e2eae8;fill-opacity:1;fill-rule:nonzero;stroke:none"
         transform="matrix(0.13333333,0,0,-0.13333333,0,666.66667)" />
      <path
         id="path77"
         d="m 1941.81,3845.63 h 143.74 v -47.07 h -143.74 v 47.07"
         style="fill:#e2eae8;fill-opacity:1;fill-rule:nonzero;stroke:none"
         transform="matrix(0.13333333,0,0,-0.13333333,0,666.66667)" />
    </g>
  </g>
</svg>
