<?xml version="1.0" encoding="UTF-8" standalone="no"?>
<!-- Created with Inkscape (http://www.inkscape.org/) -->

<svg
   version="1.1"
   id="svg1"
   width="441.37341"
   height="445.15039"
   viewBox="0 0 441.37341 445.15039"
   xmlns="http://www.w3.org/2000/svg"
   xmlns:svg="http://www.w3.org/2000/svg">
  <defs
     id="defs1">
    <clipPath
       clipPathUnits="userSpaceOnUse"
       id="clipPath80">
      <path
         d="m 4622.82,2875.27 c -21.93,0.75 -43.87,0.64 -65.7,-0.1 -9.97,-0.32 -20.14,-0.85 -29.46,-4.56 -13.89,-5.4 -24.17,-17.06 -34.03,-28.3 l -117.32,-135.13 c -189.07,124.53 -365.54,255.53 -540.09,404.65 102.49,128.23 205.29,256.26 308.1,384.4 44.19,55.1 88.39,110.22 132.68,165.33 27.03,33.81 54.16,67.62 84.68,98.35 22.36,22.47 46.1,43.13 71.12,62 166.39,-222.25 183.03,-522.6 187.9,-801.87 0.85,-48.22 1.59,-96.54 2.12,-144.77"
         transform="translate(0,2.5e-5)"
         id="path80" />
    </clipPath>
    <clipPath
       clipPathUnits="userSpaceOnUse"
       id="clipPath82">
      <path
         d="m 4622.82,2875.27 c -21.93,0.75 -43.87,0.64 -65.7,-0.1 -9.97,-0.32 -20.14,-0.85 -29.46,-4.56 -13.89,-5.4 -24.17,-17.06 -34.03,-28.3 l -117.32,-135.13 c -189.07,124.53 -365.54,255.53 -540.09,404.65 102.49,128.23 205.29,256.26 308.1,384.4 44.19,55.1 88.39,110.22 132.68,165.33 27.03,33.81 54.16,67.62 84.68,98.35 22.36,22.47 46.1,43.13 71.12,62 166.39,-222.25 183.03,-522.6 187.9,-801.87 0.85,-48.22 1.59,-96.54 2.12,-144.77"
         transform="translate(0,2.5e-5)"
         id="path82" />
    </clipPath>
    <clipPath
       clipPathUnits="userSpaceOnUse"
       id="clipPath84">
      <path
         d="m 4622.82,2875.27 c -21.93,0.75 -43.87,0.64 -65.7,-0.1 -9.97,-0.32 -20.14,-0.85 -29.46,-4.56 -13.89,-5.4 -24.17,-17.06 -34.03,-28.3 l -117.32,-135.13 c -189.07,124.53 -365.54,255.53 -540.09,404.65 102.49,128.23 205.29,256.26 308.1,384.4 44.19,55.1 88.39,110.22 132.68,165.33 27.03,33.81 54.16,67.62 84.68,98.35 22.36,22.47 46.1,43.13 71.12,62 166.39,-222.25 183.03,-522.6 187.9,-801.87 0.85,-48.22 1.59,-96.54 2.12,-144.77"
         transform="translate(0,2.5e-5)"
         id="path84" />
    </clipPath>
    <clipPath
       clipPathUnits="userSpaceOnUse"
       id="clipPath86">
      <path
         d="m 4622.82,2875.27 c -21.93,0.75 -43.87,0.64 -65.7,-0.1 -9.97,-0.32 -20.14,-0.85 -29.46,-4.56 -13.89,-5.4 -24.17,-17.06 -34.03,-28.3 l -117.32,-135.13 c -189.07,124.53 -365.54,255.53 -540.09,404.65 102.49,128.23 205.29,256.26 308.1,384.4 44.19,55.1 88.39,110.22 132.68,165.33 27.03,33.81 54.16,67.62 84.68,98.35 22.36,22.47 46.1,43.13 71.12,62 166.39,-222.25 183.03,-522.6 187.9,-801.87 0.85,-48.22 1.59,-96.54 2.12,-144.77"
         transform="translate(0,2.5e-5)"
         id="path86" />
    </clipPath>
    <clipPath
       clipPathUnits="userSpaceOnUse"
       id="clipPath96">
      <path
         d="m 7136.52,3111.83 c -174.45,-149.12 -351.01,-280.12 -539.98,-404.65 -39.22,45.05 -78.32,90.09 -117.43,135.13 -9.75,11.24 -20.14,22.9 -34.02,28.3 -9.33,3.71 -19.5,4.24 -29.36,4.56 -21.93,0.74 -43.88,0.85 -65.81,0.1 0.53,48.23 1.27,96.55 2.12,144.77 4.87,279.27 21.51,579.62 188.01,801.87 24.91,-18.97 48.75,-39.53 71.01,-62 30.52,-30.73 57.65,-64.54 84.79,-98.35 44.19,-55.11 88.39,-110.23 132.69,-165.33 102.69,-128.14 205.49,-256.17 307.98,-384.4"
         transform="translate(0,2.5e-5)"
         id="path96" />
    </clipPath>
    <clipPath
       clipPathUnits="userSpaceOnUse"
       id="clipPath98">
      <path
         d="m 7136.52,3111.83 c -174.45,-149.12 -351.01,-280.12 -539.98,-404.65 -39.22,45.05 -78.32,90.09 -117.43,135.13 -9.75,11.24 -20.14,22.9 -34.02,28.3 -9.33,3.71 -19.5,4.24 -29.36,4.56 -21.93,0.74 -43.88,0.85 -65.81,0.1 0.53,48.23 1.27,96.55 2.12,144.77 4.87,279.27 21.51,579.62 188.01,801.87 24.91,-18.97 48.75,-39.53 71.01,-62 30.52,-30.73 57.65,-64.54 84.79,-98.35 44.19,-55.11 88.39,-110.23 132.69,-165.33 102.69,-128.14 205.49,-256.17 307.98,-384.4"
         transform="translate(0,2.5e-5)"
         id="path98" />
    </clipPath>
    <clipPath
       clipPathUnits="userSpaceOnUse"
       id="clipPath100">
      <path
         d="m 7136.52,3111.83 c -174.45,-149.12 -351.01,-280.12 -539.98,-404.65 -39.22,45.05 -78.32,90.09 -117.43,135.13 -9.75,11.24 -20.14,22.9 -34.02,28.3 -9.33,3.71 -19.5,4.24 -29.36,4.56 -21.93,0.74 -43.88,0.85 -65.81,0.1 0.53,48.23 1.27,96.55 2.12,144.77 4.87,279.27 21.51,579.62 188.01,801.87 24.91,-18.97 48.75,-39.53 71.01,-62 30.52,-30.73 57.65,-64.54 84.79,-98.35 44.19,-55.11 88.39,-110.23 132.69,-165.33 102.69,-128.14 205.49,-256.17 307.98,-384.4"
         transform="translate(0,2.5e-5)"
         id="path100" />
    </clipPath>
    <clipPath
       clipPathUnits="userSpaceOnUse"
       id="clipPath102">
      <path
         d="m 7136.52,3111.83 c -174.45,-149.12 -351.01,-280.12 -539.98,-404.65 -39.22,45.05 -78.32,90.09 -117.43,135.13 -9.75,11.24 -20.14,22.9 -34.02,28.3 -9.33,3.71 -19.5,4.24 -29.36,4.56 -21.93,0.74 -43.88,0.85 -65.81,0.1 0.53,48.23 1.27,96.55 2.12,144.77 4.87,279.27 21.51,579.62 188.01,801.87 24.91,-18.97 48.75,-39.53 71.01,-62 30.52,-30.73 57.65,-64.54 84.79,-98.35 44.19,-55.11 88.39,-110.23 132.69,-165.33 102.69,-128.14 205.49,-256.17 307.98,-384.4"
         transform="translate(0,2.5e-5)"
         id="path102" />
    </clipPath>
    <clipPath
       clipPathUnits="userSpaceOnUse"
       id="clipPath112">
      <path
         d="m 6403.65,810.41 c -155.58,-20.449 -312.54,-27.449 -469.19,-34.441 -93.26,-4.239 -331.4,-3.387 -448.09,-3.387 -116.58,0 -354.83,-0.852 -447.99,3.387 -156.75,6.992 -313.7,13.992 -469.29,34.441 43.88,686.77 62,1375.98 53.73,2064.86 -0.53,48.23 -1.27,96.55 -2.12,144.77 -4.87,279.27 -21.51,579.62 -187.9,801.87 116.48,88.5 259.02,142.22 397.54,193.31 30.52,11.34 126.22,38.16 142.33,41.01 51.62,9.23 97.09,40.07 139.59,44.94 113.29,-50.23 258.8,-69.94 374.11,-69.94 115.31,0 260.93,19.71 374.12,69.94 42.5,-4.87 88.07,-35.71 139.69,-44.94 16.11,-2.85 111.81,-29.67 142.22,-41.01 138.62,-51.19 281.07,-104.81 397.65,-193.31 -166.5,-222.25 -183.14,-522.6 -188.01,-801.87 -0.85,-48.22 -1.59,-96.54 -2.12,-144.77 -8.27,-688.88 9.96,-1378.09 53.73,-2064.86"
         transform="translate(0,2.5e-5)"
         id="path112" />
    </clipPath>
    <clipPath
       clipPathUnits="userSpaceOnUse"
       id="clipPath114">
      <path
         d="m 6403.65,810.41 c -155.58,-20.449 -312.54,-27.449 -469.19,-34.441 -93.26,-4.239 -331.4,-3.387 -448.09,-3.387 -116.58,0 -354.83,-0.852 -447.99,3.387 -156.75,6.992 -313.7,13.992 -469.29,34.441 43.88,686.77 62,1375.98 53.73,2064.86 -0.53,48.23 -1.27,96.55 -2.12,144.77 -4.87,279.27 -21.51,579.62 -187.9,801.87 116.48,88.5 259.02,142.22 397.54,193.31 30.52,11.34 126.22,38.16 142.33,41.01 51.62,9.23 97.09,40.07 139.59,44.94 113.29,-50.23 258.8,-69.94 374.11,-69.94 115.31,0 260.93,19.71 374.12,69.94 42.5,-4.87 88.07,-35.71 139.69,-44.94 16.11,-2.85 111.81,-29.67 142.22,-41.01 138.62,-51.19 281.07,-104.81 397.65,-193.31 -166.5,-222.25 -183.14,-522.6 -188.01,-801.87 -0.85,-48.22 -1.59,-96.54 -2.12,-144.77 -8.27,-688.88 9.96,-1378.09 53.73,-2064.86"
         transform="translate(0,2.5e-5)"
         id="path114" />
    </clipPath>
    <clipPath
       clipPathUnits="userSpaceOnUse"
       id="clipPath116">
      <path
         d="m 6403.65,810.41 c -155.58,-20.449 -312.54,-27.449 -469.19,-34.441 -93.26,-4.239 -331.4,-3.387 -448.09,-3.387 -116.58,0 -354.83,-0.852 -447.99,3.387 -156.75,6.992 -313.7,13.992 -469.29,34.441 43.88,686.77 62,1375.98 53.73,2064.86 -0.53,48.23 -1.27,96.55 -2.12,144.77 -4.87,279.27 -21.51,579.62 -187.9,801.87 116.48,88.5 259.02,142.22 397.54,193.31 30.52,11.34 126.22,38.16 142.33,41.01 51.62,9.23 97.09,40.07 139.59,44.94 113.29,-50.23 258.8,-69.94 374.11,-69.94 115.31,0 260.93,19.71 374.12,69.94 42.5,-4.87 88.07,-35.71 139.69,-44.94 16.11,-2.85 111.81,-29.67 142.22,-41.01 138.62,-51.19 281.07,-104.81 397.65,-193.31 -166.5,-222.25 -183.14,-522.6 -188.01,-801.87 -0.85,-48.22 -1.59,-96.54 -2.12,-144.77 -8.27,-688.88 9.96,-1378.09 53.73,-2064.86"
         transform="translate(0,2.5e-5)"
         id="path116" />
    </clipPath>
    <clipPath
       clipPathUnits="userSpaceOnUse"
       id="clipPath118">
      <path
         d="m 6403.65,810.41 c -155.58,-20.449 -312.54,-27.449 -469.19,-34.441 -93.26,-4.239 -331.4,-3.387 -448.09,-3.387 -116.58,0 -354.83,-0.852 -447.99,3.387 -156.75,6.992 -313.7,13.992 -469.29,34.441 43.88,686.77 62,1375.98 53.73,2064.86 -0.53,48.23 -1.27,96.55 -2.12,144.77 -4.87,279.27 -21.51,579.62 -187.9,801.87 116.48,88.5 259.02,142.22 397.54,193.31 30.52,11.34 126.22,38.16 142.33,41.01 51.62,9.23 97.09,40.07 139.59,44.94 113.29,-50.23 258.8,-69.94 374.11,-69.94 115.31,0 260.93,19.71 374.12,69.94 42.5,-4.87 88.07,-35.71 139.69,-44.94 16.11,-2.85 111.81,-29.67 142.22,-41.01 138.62,-51.19 281.07,-104.81 397.65,-193.31 -166.5,-222.25 -183.14,-522.6 -188.01,-801.87 -0.85,-48.22 -1.59,-96.54 -2.12,-144.77 -8.27,-688.88 9.96,-1378.09 53.73,-2064.86"
         transform="translate(0,2.5e-5)"
         id="path118" />
    </clipPath>
    <clipPath
       clipPathUnits="userSpaceOnUse"
       id="clipPath120">
      <path
         d="m 6403.65,810.41 c -155.58,-20.449 -312.54,-27.449 -469.19,-34.441 -93.26,-4.239 -331.4,-3.387 -448.09,-3.387 -116.58,0 -354.83,-0.852 -447.99,3.387 -156.75,6.992 -313.7,13.992 -469.29,34.441 43.88,686.77 62,1375.98 53.73,2064.86 -0.53,48.23 -1.27,96.55 -2.12,144.77 -4.87,279.27 -21.51,579.62 -187.9,801.87 116.48,88.5 259.02,142.22 397.54,193.31 30.52,11.34 126.22,38.16 142.33,41.01 51.62,9.23 97.09,40.07 139.59,44.94 113.29,-50.23 258.8,-69.94 374.11,-69.94 115.31,0 260.93,19.71 374.12,69.94 42.5,-4.87 88.07,-35.71 139.69,-44.94 16.11,-2.85 111.81,-29.67 142.22,-41.01 138.62,-51.19 281.07,-104.81 397.65,-193.31 -166.5,-222.25 -183.14,-522.6 -188.01,-801.87 -0.85,-48.22 -1.59,-96.54 -2.12,-144.77 -8.27,-688.88 9.96,-1378.09 53.73,-2064.86"
         transform="translate(0,2.5e-5)"
         id="path120" />
    </clipPath>
    <clipPath
       clipPathUnits="userSpaceOnUse"
       id="clipPath122">
      <path
         d="m 6403.65,810.41 c -155.58,-20.449 -312.54,-27.449 -469.19,-34.441 -93.26,-4.239 -331.4,-3.387 -448.09,-3.387 -116.58,0 -354.83,-0.852 -447.99,3.387 -156.75,6.992 -313.7,13.992 -469.29,34.441 43.88,686.77 62,1375.98 53.73,2064.86 -0.53,48.23 -1.27,96.55 -2.12,144.77 -4.87,279.27 -21.51,579.62 -187.9,801.87 116.48,88.5 259.02,142.22 397.54,193.31 30.52,11.34 126.22,38.16 142.33,41.01 51.62,9.23 97.09,40.07 139.59,44.94 113.29,-50.23 258.8,-69.94 374.11,-69.94 115.31,0 260.93,19.71 374.12,69.94 42.5,-4.87 88.07,-35.71 139.69,-44.94 16.11,-2.85 111.81,-29.67 142.22,-41.01 138.62,-51.19 281.07,-104.81 397.65,-193.31 -166.5,-222.25 -183.14,-522.6 -188.01,-801.87 -0.85,-48.22 -1.59,-96.54 -2.12,-144.77 -8.27,-688.88 9.96,-1378.09 53.73,-2064.86"
         transform="translate(0,2.5e-5)"
         id="path122" />
    </clipPath>
  </defs>
  <g
     id="g1"
     transform="translate(-489.20776,-116.47865)">
    <g
       id="g185">
      <path
         id="path139"
         d="m 4622.82,2875.27 c -21.93,0.75 -43.87,0.64 -65.7,-0.1 -9.97,-0.32 -20.14,-0.85 -29.46,-4.56 -13.89,-5.4 -24.17,-17.06 -34.03,-28.3 l -117.32,-135.13 c -189.07,124.53 -365.54,255.53 -540.09,404.65 102.49,128.23 205.29,256.26 308.1,384.4 44.19,55.1 88.39,110.22 132.68,165.33 27.03,33.81 54.16,67.62 84.68,98.35 22.36,22.47 46.1,43.13 71.12,62 166.39,-222.25 183.03,-522.6 187.9,-801.87 0.85,-48.22 1.59,-96.54 2.12,-144.77"
         style="fill:#ffffff;fill-opacity:1;fill-rule:nonzero;stroke:none"
         transform="matrix(0.13333333,0,0,-0.13333333,-21.621622,663.96397)" />
      <path
         id="path140"
         d="m 3859.8,3157.39 c 189.42,-146 390.86,-279.58 602.15,-399.35 2.4,-1.36 5.45,-0.52 6.81,1.88 1.37,2.4 0.52,5.46 -1.88,6.82 -210.88,119.54 -411.94,252.87 -600.98,398.57 -2.18,1.69 -5.32,1.28 -7.01,-0.9 -1.68,-2.19 -1.28,-5.33 0.91,-7.02"
         style="fill:#6b758d;fill-opacity:1;fill-rule:nonzero;stroke:none"
         transform="matrix(0.13333333,0,0,-0.13333333,-21.621622,663.96397)"
         clip-path="url(#clipPath80)" />
      <path
         id="path141"
         d="m 3895.24,3198.16 c 195.65,-140.53 392.1,-281.62 606.4,-399.26 2.42,-1.33 5.46,-0.45 6.79,1.97 1.32,2.42 0.44,5.46 -1.98,6.79 -213.6,117.26 -409.73,258.09 -605.38,398.62 -2.24,1.61 -5.37,1.1 -6.98,-1.14 -1.61,-2.25 -1.1,-5.37 1.15,-6.98"
         style="fill:#6b758d;fill-opacity:1;fill-rule:nonzero;stroke:none"
         transform="matrix(0.13333333,0,0,-0.13333333,-21.621622,663.96397)"
         clip-path="url(#clipPath82)" />
      <path
         id="path142"
         d="m 4529.77,3167.57 c 31.02,-99.65 50.1,-203.01 56.71,-307.15 0.18,-2.76 2.56,-4.85 5.31,-4.67 2.76,0.17 4.85,2.55 4.68,5.3 -6.67,104.94 -25.89,209.08 -57.16,309.49 -0.82,2.64 -3.62,4.11 -6.26,3.29 -2.63,-0.82 -4.1,-3.63 -3.28,-6.26"
         style="fill:#dfe1e7;fill-opacity:1;fill-rule:nonzero;stroke:none"
         transform="matrix(0.13333333,0,0,-0.13333333,-21.621622,663.96397)"
         clip-path="url(#clipPath84)" />
      <path
         id="path143"
         d="m 4559.3,2858.71 c -24.74,73.33 -61.84,142.47 -109.22,203.66 -1.69,2.18 -4.84,2.58 -7.02,0.89 -2.18,-1.69 -2.58,-4.83 -0.89,-7.01 46.7,-60.3 83.27,-128.47 107.65,-200.74 0.89,-2.62 3.72,-4.02 6.34,-3.14 2.62,0.88 4.02,3.72 3.14,6.34 v 0"
         style="fill:#dfe1e7;fill-opacity:1;fill-rule:nonzero;stroke:none"
         transform="matrix(0.13333333,0,0,-0.13333333,-21.621622,663.96397)"
         clip-path="url(#clipPath86)" />
      <path
         id="path144"
         d="m 4375.4,2713.77 c -46.96,30.97 -93.15,62.36 -138.72,94.32 11.03,17.5 24.94,37.65 41.9,58.89 49.81,-30.99 100.21,-61.18 151.22,-90.57 l -54.4,-62.64 m 61.08,70.34 c -51.12,29.42 -101.64,59.66 -151.54,90.7 9.28,11.25 19.4,22.74 30.4,34.26 49.51,-31.23 99.8,-61.53 151.04,-90.52 l -29.9,-34.44 m 36.59,42.15 c -51.09,28.86 -101.21,59.02 -150.61,90.14 37.98,38.47 85.77,76.61 144.32,105.97 30.37,-44.61 55.48,-92.81 74.6,-143.27 -5.2,-0.67 -10.43,-1.81 -15.57,-3.84 l 0.03,0.01 c -15.4,-6.05 -26.09,-18.47 -35.97,-29.66 l -0.01,-0.02 -16.79,-19.33"
         style="fill:#eaeae7;fill-opacity:1;fill-rule:nonzero;stroke:none"
         transform="matrix(0.13333333,0,0,-0.13333333,-21.621622,663.96397)" />
      <path
         id="path145"
         d="m 4429.8,2776.41 c -51.01,29.39 -101.41,59.58 -151.22,90.57 2.08,2.6 4.19,5.2 6.36,7.83 49.9,-31.04 100.42,-61.28 151.54,-90.7 l -6.68,-7.7"
         style="fill:#636c83;fill-opacity:1;fill-rule:nonzero;stroke:none"
         transform="matrix(0.13333333,0,0,-0.13333333,-21.621622,663.96397)" />
      <path
         id="path146"
         d="m 4466.38,2818.55 c -51.24,28.99 -101.53,59.29 -151.04,90.52 2.33,2.44 4.7,4.89 7.12,7.33 49.4,-31.12 99.52,-61.28 150.61,-90.14 l -6.69,-7.71"
         style="fill:#636c83;fill-opacity:1;fill-rule:nonzero;stroke:none"
         transform="matrix(0.13333333,0,0,-0.13333333,-21.621622,663.96397)" />
      <path
         id="path147"
         d="m 4551.74,2879.96 c -19.36,51.73 -44.9,101.13 -75.89,146.85 25.64,12.22 53.26,22.73 82.96,30.88 12.74,-58.3 21.51,-117.46 26.22,-176.94 -9.38,-0.07 -18.74,-0.27 -28.08,-0.59 -1.72,-0.05 -3.46,-0.12 -5.21,-0.2 m 66.02,0.47 c -7.57,0.21 -15.14,0.32 -22.7,0.35 -4.74,60.33 -13.63,120.34 -26.57,179.46 14.9,3.77 30.28,6.94 46.21,9.43 0.39,-16.63 0.72,-33.2 1,-49.71 0.82,-46.48 1.54,-93.05 2.06,-139.53"
         style="fill:#eaeae7;fill-opacity:1;fill-rule:nonzero;stroke:none"
         transform="matrix(0.13333333,0,0,-0.13333333,-21.621622,663.96397)" />
      <path
         id="path148"
         d="m 4585.03,2880.75 c -4.71,59.48 -13.48,118.64 -26.22,176.94 3.21,0.88 6.43,1.73 9.68,2.55 12.94,-59.12 21.83,-119.13 26.57,-179.46 -0.92,0 -1.84,0 -2.76,0 -2.42,0 -4.85,-0.01 -7.27,-0.03"
         style="fill:#cdcfd4;fill-opacity:1;fill-rule:nonzero;stroke:none"
         transform="matrix(0.13333333,0,0,-0.13333333,-21.621622,663.96397)" />
      <path
         id="path149"
         d="m 4541.38,2879.1 c -19.12,50.46 -44.23,98.66 -74.6,143.27 2.99,1.5 6.02,2.98 9.07,4.44 30.99,-45.72 56.53,-95.12 75.89,-146.85 -3.41,-0.16 -6.88,-0.4 -10.36,-0.86"
         style="fill:#cdcfd4;fill-opacity:1;fill-rule:nonzero;stroke:none"
         transform="matrix(0.13333333,0,0,-0.13333333,-21.621622,663.96397)" />
      <path
         id="path150"
         d="m 4622.82,2875.27 0.17,5 c -10.24,0.35 -20.47,0.51 -30.69,0.51 -11.81,0 -23.6,-0.22 -35.35,-0.62 -10.02,-0.33 -20.78,-0.81 -31.14,-4.9 l 0.03,0.01 c -15.4,-6.05 -26.09,-18.47 -35.97,-29.66 l -0.01,-0.02 -117.33,-135.13 3.78,-3.28 2.75,4.18 c -188.92,124.43 -365.21,255.29 -539.59,404.27 l -3.25,-3.8 3.91,-3.13 c 102.48,128.24 205.28,256.26 308.09,384.4 44.19,55.11 88.38,110.22 132.68,165.33 h 0.01 c 27.02,33.81 54.05,67.47 84.32,97.95 h -0.01 c 22.2,22.3 45.76,42.81 70.59,61.54 l -3.01,3.99 -4,-3 c 165.2,-220.51 182.09,-519.77 186.9,-798.95 0.85,-48.22 1.59,-96.53 2.12,-144.74 l 5,0.05 0.17,5 -0.17,-5 5,0.06 c -0.53,48.23 -1.27,96.57 -2.12,144.8 -4.93,279.35 -21.32,580.8 -188.9,804.78 -0.8,1.07 -1.97,1.76 -3.29,1.95 -1.33,0.19 -2.65,-0.15 -3.72,-0.96 -25.2,-19.01 -49.12,-39.83 -71.65,-62.47 h -0.01 c -30.76,-30.98 -58,-64.94 -85.03,-98.75 v 0.01 c -44.29,-55.11 -88.5,-110.23 -132.69,-165.34 -102.8,-128.13 -205.6,-256.16 -308.09,-384.4 -1.69,-2.11 -1.4,-5.17 0.65,-6.93 174.72,-149.25 351.36,-280.38 540.59,-405.01 2.09,-1.38 4.88,-1 6.52,0.9 l 117.33,135.12 -0.02,-0.02 c 9.84,11.28 19.71,22.18 32.08,26.94 l 0.03,0.01 c 8.3,3.32 17.87,3.91 27.78,4.21 11.65,0.4 23.33,0.61 35.02,0.61 10.11,0 20.24,-0.16 30.35,-0.5 1.38,-0.05 2.68,0.46 3.67,1.42 0.98,0.96 1.52,2.25 1.5,3.63 l -5,-0.06"
         style="fill:#1c283e;fill-opacity:1;fill-rule:nonzero;stroke:none"
         transform="matrix(0.13333333,0,0,-0.13333333,-21.621622,663.96397)" />
      <path
         id="path151"
         d="m 7136.52,3111.83 c -174.45,-149.12 -351.01,-280.12 -539.98,-404.65 -39.22,45.05 -78.32,90.09 -117.43,135.13 -9.75,11.24 -20.14,22.9 -34.02,28.3 -9.33,3.71 -19.5,4.24 -29.36,4.56 -21.93,0.74 -43.88,0.85 -65.81,0.1 0.53,48.23 1.27,96.55 2.12,144.77 4.87,279.27 21.51,579.62 188.01,801.87 24.91,-18.97 48.75,-39.53 71.01,-62 30.52,-30.73 57.65,-64.54 84.79,-98.35 44.19,-55.11 88.39,-110.23 132.69,-165.33 102.69,-128.14 205.49,-256.17 307.98,-384.4"
         style="fill:#ffffff;fill-opacity:1;fill-rule:nonzero;stroke:none"
         transform="matrix(0.13333333,0,0,-0.13333333,-21.621622,663.96397)" />
      <path
         id="path152"
         d="m 7106.88,3165.31 c -189.04,-145.7 -390.09,-279.03 -600.98,-398.57 -2.4,-1.36 -3.24,-4.42 -1.88,-6.82 1.36,-2.4 4.41,-3.24 6.81,-1.88 211.29,119.77 412.74,253.35 602.15,399.35 2.19,1.69 2.6,4.83 0.91,7.02 -1.68,2.18 -4.82,2.59 -7.01,0.9"
         style="fill:#6b758d;fill-opacity:1;fill-rule:nonzero;stroke:none"
         transform="matrix(0.13333333,0,0,-0.13333333,-21.621622,663.96397)"
         clip-path="url(#clipPath96)" />
      <path
         id="path153"
         d="m 7071.71,3206.28 c -195.65,-140.53 -391.78,-281.36 -605.38,-398.62 -2.42,-1.33 -3.3,-4.37 -1.97,-6.79 1.32,-2.42 4.36,-3.3 6.79,-1.97 214.29,117.64 410.74,258.73 606.4,399.26 2.24,1.61 2.75,4.73 1.14,6.98 -1.61,2.24 -4.74,2.75 -6.98,1.14"
         style="fill:#6b758d;fill-opacity:1;fill-rule:nonzero;stroke:none"
         transform="matrix(0.13333333,0,0,-0.13333333,-21.621622,663.96397)"
         clip-path="url(#clipPath98)" />
      <path
         id="path154"
         d="m 6433.47,3170.54 c -31.26,-100.41 -50.49,-204.55 -57.15,-309.49 -0.18,-2.75 1.91,-5.13 4.67,-5.3 2.76,-0.18 5.13,1.91 5.31,4.67 6.61,104.14 25.69,207.5 56.72,307.15 0.82,2.63 -0.66,5.44 -3.29,6.26 -2.64,0.82 -5.44,-0.65 -6.26,-3.29"
         style="fill:#dfe1e7;fill-opacity:1;fill-rule:nonzero;stroke:none"
         transform="matrix(0.13333333,0,0,-0.13333333,-21.621622,663.96397)"
         clip-path="url(#clipPath100)" />
      <path
         id="path155"
         d="m 6422.96,2855.51 c 24.39,72.27 60.95,140.44 107.65,200.74 1.69,2.18 1.29,5.32 -0.89,7.01 -2.18,1.69 -5.32,1.29 -7.01,-0.89 -47.39,-61.19 -84.48,-130.33 -109.22,-203.66 -0.89,-2.62 0.52,-5.46 3.13,-6.34 2.62,-0.88 5.46,0.52 6.34,3.14"
         style="fill:#dfe1e7;fill-opacity:1;fill-rule:nonzero;stroke:none"
         transform="matrix(0.13333333,0,0,-0.13333333,-21.621622,663.96397)"
         clip-path="url(#clipPath102)" />
      <path
         id="path156"
         d="m 6597.44,2713.76 c -18.17,20.88 -36.33,41.77 -54.47,62.65 52.94,30.5 105.25,61.88 156.9,94.1 18.4,-20.43 34.71,-39.13 47.75,-54.33 -49.29,-34.76 -99.3,-68.83 -150.18,-102.42 m -61.15,70.34 c -9.97,11.48 -19.94,22.96 -29.91,34.44 52.78,29.86 104.52,61.09 155.48,93.31 10.82,-11.51 21.28,-22.87 31.19,-33.8 -51.59,-32.17 -103.87,-63.5 -156.76,-93.95 m -36.6,42.14 c -5.6,6.45 -11.2,12.9 -16.8,19.35 -9.79,11.22 -20.59,23.63 -35.99,29.68 l 0.03,-0.01 c -5.12,2.02 -10.35,3.16 -15.52,3.84 22.31,58.89 52.78,114.7 90.25,165.32 42.7,-33.3 90.46,-80.05 133.21,-125.15 -50.88,-32.15 -102.51,-63.28 -155.18,-93.03"
         style="fill:#eaeae7;fill-opacity:1;fill-rule:nonzero;stroke:none"
         transform="matrix(0.13333333,0,0,-0.13333333,-21.621622,663.96397)" />
      <path
         id="path157"
         d="m 6542.97,2776.41 c -2.23,2.56 -4.45,5.12 -6.68,7.69 52.89,30.45 105.17,61.78 156.76,93.95 2.3,-2.54 4.57,-5.05 6.82,-7.54 -51.65,-32.22 -103.96,-63.6 -156.9,-94.1"
         style="fill:#636c83;fill-opacity:1;fill-rule:nonzero;stroke:none"
         transform="matrix(0.13333333,0,0,-0.13333333,-21.621622,663.96397)" />
      <path
         id="path158"
         d="m 6506.38,2818.54 c -2.23,2.56 -4.46,5.13 -6.69,7.7 52.67,29.75 104.3,60.88 155.18,93.03 2.34,-2.48 4.68,-4.95 6.99,-7.42 -50.96,-32.22 -102.7,-63.45 -155.48,-93.31"
         style="fill:#636c83;fill-opacity:1;fill-rule:nonzero;stroke:none"
         transform="matrix(0.13333333,0,0,-0.13333333,-21.621622,663.96397)" />
      <path
         id="path159"
         d="m 6421.05,2879.96 c -1.74,0.08 -3.46,0.15 -5.16,0.2 -9.37,0.32 -18.75,0.52 -28.14,0.59 5.79,73.09 17.71,145.7 35.59,216.81 33.96,-13.6 65.37,-29.28 90.31,-47.15 -38.6,-52.14 -69.86,-109.69 -92.6,-170.45 m -66.07,0.47 c 0.52,46.48 1.24,93.05 2.06,139.53 0.57,33.14 1.31,66.59 2.45,100.13 18.37,-5.74 36.71,-12.02 54.46,-18.85 -18.25,-72.3 -30.39,-146.13 -36.23,-220.46 -7.58,-0.03 -15.16,-0.14 -22.74,-0.35"
         style="fill:#eaeae7;fill-opacity:1;fill-rule:nonzero;stroke:none"
         transform="matrix(0.13333333,0,0,-0.13333333,-21.621622,663.96397)" />
      <path
         id="path160"
         d="m 6387.75,2880.75 c -2.43,0.02 -4.86,0.03 -7.29,0.03 -0.92,0 -1.83,0 -2.74,0 5.84,74.33 17.98,148.16 36.23,220.46 3.15,-1.21 6.28,-2.43 9.39,-3.68 -17.88,-71.11 -29.8,-143.72 -35.59,-216.81"
         style="fill:#cdcfd4;fill-opacity:1;fill-rule:nonzero;stroke:none"
         transform="matrix(0.13333333,0,0,-0.13333333,-21.621622,663.96397)" />
      <path
         id="path161"
         d="m 6431.41,2879.1 c -3.5,0.46 -6.97,0.7 -10.36,0.86 22.74,60.76 54,118.31 92.6,170.45 2.56,-1.84 5.05,-3.7 7.47,-5.58 0.18,-0.14 0.36,-0.28 0.54,-0.41 -37.47,-50.62 -67.94,-106.43 -90.25,-165.32"
         style="fill:#cdcfd4;fill-opacity:1;fill-rule:nonzero;stroke:none"
         transform="matrix(0.13333333,0,0,-0.13333333,-21.621622,663.96397)" />
      <path
         id="path162"
         d="m 7136.52,3111.83 -3.25,3.8 c -174.28,-148.98 -350.66,-279.84 -539.48,-404.27 l 2.75,-4.18 3.77,3.29 c -39.21,45.04 -78.31,90.08 -117.42,135.12 -9.79,11.22 -20.59,23.63 -35.99,29.68 l 0.03,-0.01 c -10.35,4.09 -21.12,4.57 -31.04,4.9 -11.8,0.4 -23.61,0.62 -35.43,0.62 -10.24,0 -20.47,-0.16 -30.71,-0.51 l 0.17,-5 5,-0.05 c 0.53,48.21 1.27,96.52 2.12,144.74 4.81,279.18 21.7,578.44 187.01,798.95 l -4,3 -3.03,-3.98 c 24.75,-18.84 48.41,-39.26 70.49,-61.54 l 0.01,-0.01 c 30.27,-30.48 57.29,-64.14 84.43,-97.95 v 0 c 44.19,-55.11 88.39,-110.23 132.69,-165.34 l -0.01,0.01 c 102.7,-128.14 205.5,-256.16 307.99,-384.4 l 3.9,3.13 -3.25,3.8 3.25,-3.8 3.91,3.12 c -102.5,128.24 -205.3,256.27 -307.99,384.4 l -0.01,0.01 c -44.29,55.1 -88.49,110.21 -132.68,165.33 v 0 c -27.14,33.8 -54.37,67.76 -85.14,98.74 h 0.01 c -22.45,22.65 -46.47,43.36 -71.54,62.46 -1.07,0.81 -2.4,1.16 -3.72,0.97 -1.33,-0.18 -2.51,-0.88 -3.31,-1.95 -167.68,-223.98 -184.08,-525.43 -189.01,-804.78 -0.85,-48.23 -1.59,-96.57 -2.12,-144.8 -0.01,-1.38 0.52,-2.67 1.51,-3.63 0.98,-0.96 2.29,-1.47 3.66,-1.42 10.12,0.34 20.24,0.5 30.37,0.5 11.69,0 23.4,-0.21 35.1,-0.61 9.8,-0.3 19.38,-0.89 27.68,-4.21 l 0.03,-0.01 c 12.38,-4.76 22.36,-15.67 32.06,-26.92 39.12,-45.04 78.22,-90.08 117.44,-135.13 1.65,-1.89 4.43,-2.27 6.52,-0.89 189.12,124.63 365.86,255.76 540.48,405.02 2.05,1.75 2.34,4.81 0.66,6.92 l -3.91,-3.12"
         style="fill:#1c283e;fill-opacity:1;fill-rule:nonzero;stroke:none"
         transform="matrix(0.13333333,0,0,-0.13333333,-21.621622,663.96397)" />
      <path
         id="path163"
         d="m 6403.65,810.41 c -155.58,-20.449 -312.54,-27.449 -469.19,-34.441 -93.26,-4.239 -331.4,-3.387 -448.09,-3.387 -116.58,0 -354.83,-0.852 -447.99,3.387 -156.75,6.992 -313.7,13.992 -469.29,34.441 43.88,686.77 62,1375.98 53.73,2064.86 -0.53,48.23 -1.27,96.55 -2.12,144.77 -4.87,279.27 -21.51,579.62 -187.9,801.87 116.48,88.5 259.02,142.22 397.54,193.31 30.52,11.34 126.22,38.16 142.33,41.01 51.62,9.23 97.09,40.07 139.59,44.94 113.29,-50.23 258.8,-69.94 374.11,-69.94 115.31,0 260.93,19.71 374.12,69.94 42.5,-4.87 88.07,-35.71 139.69,-44.94 16.11,-2.85 111.81,-29.67 142.22,-41.01 138.62,-51.19 281.07,-104.81 397.65,-193.31 -166.5,-222.25 -183.14,-522.6 -188.01,-801.87 -0.85,-48.22 -1.59,-96.54 -2.12,-144.77 -8.27,-688.88 9.96,-1378.09 53.73,-2064.86"
         style="fill:#ffffff;fill-opacity:1;fill-rule:nonzero;stroke:none"
         transform="matrix(0.13333333,0,0,-0.13333333,-21.621622,663.96397)" />
      <path
         id="path164"
         d="m 4555.43,915.949 c 308.18,-47.758 619.97,-47.98 930.96,-47.98 310.99,0 622.79,0.222 930.98,47.98 2.72,0.422 4.59,2.981 4.17,5.699 -0.42,2.731 -2.98,4.602 -5.7,4.184 -307.19,-47.613 -618.46,-47.871 -929.45,-47.863 -310.99,-0.008 -622.26,0.25 -929.43,47.863 -2.73,0.418 -5.29,-1.453 -5.71,-4.184 -0.42,-2.718 1.45,-5.277 4.18,-5.699"
         style="fill:#6b758d;fill-opacity:1;fill-rule:nonzero;stroke:none"
         transform="matrix(0.13333333,0,0,-0.13333333,-21.621622,663.96397)"
         clip-path="url(#clipPath112)" />
      <path
         id="path165"
         d="m 6420.33,874.371 c -307.65,-29.422 -642.04,-51.41 -933.93,-51.41 -291.91,0 -626.3,21.988 -933.94,51.41 -2.75,0.27 -5.19,-1.75 -5.45,-4.5 -0.27,-2.75 1.75,-5.191 4.5,-5.449 307.86,-29.453 642.49,-51.461 934.89,-51.461 292.38,0 627.01,22.008 934.88,51.461 2.74,0.258 4.76,2.699 4.5,5.449 -0.27,2.75 -2.71,4.758 -5.45,4.5 v 0"
         style="fill:#6b758d;fill-opacity:1;fill-rule:nonzero;stroke:none"
         transform="matrix(0.13333333,0,0,-0.13333333,-21.621622,663.96397)"
         clip-path="url(#clipPath114)" />
      <path
         id="path166"
         d="m 5964.9,1636.12 c 149.39,6.33 299.99,3.69 449.16,21.03 2.74,0.32 4.71,2.8 4.39,5.55 -0.32,2.74 -2.8,4.71 -5.54,4.39 -148.29,-17.25 -298.64,-14.64 -448.43,-20.98 -2.76,-0.12 -4.91,-2.45 -4.79,-5.21 0.12,-2.76 2.45,-4.9 5.21,-4.78"
         style="fill:#dfe1e7;fill-opacity:1;fill-rule:nonzero;stroke:none"
         transform="matrix(0.13333333,0,0,-0.13333333,-21.621622,663.96397)"
         clip-path="url(#clipPath116)" />
      <path
         id="path167"
         d="m 6154.81,4035.56 c -35.18,-72.16 -63.74,-147.54 -85.24,-224.89 -0.74,-2.66 0.81,-5.42 3.48,-6.16 2.66,-0.74 5.41,0.82 6.15,3.48 21.35,76.77 49.69,151.57 84.6,223.19 1.21,2.48 0.18,5.47 -2.3,6.68 -2.48,1.21 -5.48,0.18 -6.69,-2.3"
         style="fill:#dfe1e7;fill-opacity:1;fill-rule:nonzero;stroke:none"
         transform="matrix(0.13333333,0,0,-0.13333333,-21.621622,663.96397)"
         clip-path="url(#clipPath118)" />
      <path
         id="path168"
         d="m 5008.31,1646.11 c -149.79,6.34 -300.15,3.73 -448.44,20.98 -2.74,0.32 -5.22,-1.65 -5.54,-4.39 -0.32,-2.75 1.65,-5.23 4.39,-5.55 149.17,-17.34 299.77,-14.7 449.16,-21.03 2.76,-0.12 5.09,2.02 5.21,4.78 0.12,2.76 -2.02,5.09 -4.78,5.21"
         style="fill:#dfe1e7;fill-opacity:1;fill-rule:nonzero;stroke:none"
         transform="matrix(0.13333333,0,0,-0.13333333,-21.621622,663.96397)"
         clip-path="url(#clipPath120)" />
      <path
         id="path169"
         d="m 4808.98,4031.18 c 34.92,-71.62 63.27,-146.42 84.6,-223.19 0.74,-2.66 3.5,-4.22 6.16,-3.48 2.66,0.74 4.22,3.5 3.48,6.16 -21.5,77.35 -50.07,152.73 -85.25,224.89 -1.21,2.48 -4.2,3.51 -6.68,2.3 -2.49,-1.21 -3.52,-4.2 -2.31,-6.68"
         style="fill:#dfe1e7;fill-opacity:1;fill-rule:nonzero;stroke:none"
         transform="matrix(0.13333333,0,0,-0.13333333,-21.621622,663.96397)"
         clip-path="url(#clipPath122)" />
      <path
         id="path170"
         d="m 4615.99,804.641 c -15.65,1.761 -31.28,3.621 -46.9,5.66 0.01,0.051 0.01,0.07 0.01,0.109 15.61,-2.051 31.24,-3.969 46.89,-5.769"
         style="fill:#c3ccca;fill-opacity:1;fill-rule:nonzero;stroke:none"
         transform="matrix(0.13333333,0,0,-0.13333333,-21.621622,663.96397)" />
      <path
         id="path171"
         d="m 4651.12,800.879 c -11.71,1.211 -23.42,2.453 -35.13,3.762 -15.65,1.8 -31.28,3.718 -46.9,5.769 1.12,17.309 2.21,34.711 3.28,52.031 26.82,-2.531 53.79,-4.992 80.95,-7.39 -0.71,-17.992 -1.44,-36.063 -2.2,-54.172 m 2.59,64.172 c -27.06,2.398 -53.99,4.859 -80.72,7.371 0.83,13.508 1.65,26.988 2.47,40.488 26.53,-3.93 53.09,-7.519 79.67,-10.801 -0.46,-12.308 -0.94,-24.687 -1.42,-37.058 m 1.8,47.09 c -26.53,3.281 -52.99,6.859 -79.45,10.789 14.51,242.78 25.81,485.82 33.86,729.02 20.93,-1.84 41.88,-3.36 62.85,-4.63 -2.29,-227.72 -7.57,-474.68 -17.26,-735.179"
         style="fill:#eaeae7;fill-opacity:1;fill-rule:nonzero;stroke:none"
         transform="matrix(0.13333333,0,0,-0.13333333,-21.621622,663.96397)" />
      <path
         id="path172"
         d="m 4655.13,902.109 c -26.58,3.282 -53.14,6.871 -79.67,10.801 0.19,3.309 0.4,6.711 0.6,10.02 26.46,-3.93 52.92,-7.508 79.45,-10.789 -0.13,-3.332 -0.26,-6.7 -0.38,-10.032"
         style="fill:#636c83;fill-opacity:1;fill-rule:nonzero;stroke:none"
         transform="matrix(0.13333333,0,0,-0.13333333,-21.621622,663.96397)" />
      <path
         id="path173"
         d="m 4653.32,855.051 c -27.16,2.398 -54.13,4.859 -80.95,7.39 0.21,3.348 0.41,6.629 0.62,9.981 26.73,-2.512 53.66,-4.973 80.72,-7.371 -0.13,-3.34 -0.26,-6.653 -0.39,-10"
         style="fill:#636c83;fill-opacity:1;fill-rule:nonzero;stroke:none"
         transform="matrix(0.13333333,0,0,-0.13333333,-21.621622,663.96397)" />
      <path
         id="path174"
         d="m 4622.92,2867.06 c -0.01,1.05 -0.03,2.16 -0.04,3.21 v 0 c 0.01,-1.05 0.03,-2.16 0.04,-3.21"
         style="fill:#c3ccca;fill-opacity:1;fill-rule:nonzero;stroke:none"
         transform="matrix(0.13333333,0,0,-0.13333333,-21.621622,663.96397)" />
      <path
         id="path175"
         d="m 4622.88,2870.27 c -0.02,1.64 -0.04,3.26 -0.06,4.9 -0.53,48.33 -1.27,96.54 -2.12,144.87 -0.29,16.73 -0.62,33.53 -1.03,50.38 0,0 0,0 0,0.01 0.41,-16.86 0.74,-33.66 1.03,-50.39 0.85,-48.22 1.59,-96.54 2.12,-144.77 0.02,-1.68 0.04,-3.31 0.06,-5 v 0"
         style="fill:#192438;fill-opacity:1;fill-rule:nonzero;stroke:none"
         transform="matrix(0.13333333,0,0,-0.13333333,-21.621622,663.96397)" />
      <path
         id="path176"
         d="m 4672.87,1657.34 c -20.9,1.26 -41.78,2.78 -62.62,4.61 13.15,401.45 17.44,803.31 12.67,1205.11 -0.01,1.05 -0.03,2.16 -0.04,3.21 -0.02,1.69 -0.04,3.32 -0.06,5 -0.53,48.23 -1.27,96.55 -2.12,144.77 -0.29,16.73 -0.62,33.53 -1.03,50.39 9.42,1.38 19.02,2.54 28.81,3.43 0,0 32.56,-574.37 24.39,-1416.52"
         style="fill:#eaeae7;fill-opacity:1;fill-rule:nonzero;stroke:none"
         transform="matrix(0.13333333,0,0,-0.13333333,-21.621622,663.96397)" />
      <path
         id="path177"
         d="m 4672.77,1647.32 c -20.97,1.27 -41.92,2.79 -62.85,4.63 0.12,3.36 0.22,6.64 0.33,10 20.84,-1.83 41.72,-3.35 62.62,-4.61 -0.03,-3.31 -0.07,-6.7 -0.1,-10.02"
         style="fill:#cdcfd4;fill-opacity:1;fill-rule:nonzero;stroke:none"
         transform="matrix(0.13333333,0,0,-0.13333333,-21.621622,663.96397)" />
      <path
         id="path178"
         d="m 6167.39,787.992 v 0 c 78.96,5.207 157.79,12.11 236.26,22.418 0,-0.039 0,-0.058 0,-0.109 -78.44,-10.262 -157.27,-17.121 -236.26,-22.309 m 180.59,1764.288 c 0,106.01 0.63,211.99 1.88,317.99 v 0 c -1.25,-106 -1.88,-211.99 -1.88,-317.99"
         style="fill:#c3ccca;fill-opacity:1;fill-rule:nonzero;stroke:none"
         transform="matrix(0.13333333,0,0,-0.13333333,-21.621622,663.96397)" />
      <path
         id="path179"
         d="m 6349.86,2870.27 v 0 c 0.02,1.69 0.04,3.32 0.06,5 0.53,48.23 1.27,96.55 2.12,144.77 0.59,33.62 1.34,67.53 2.51,101.58 0.02,0 0.03,0 0.04,-0.01 -1.17,-34.04 -1.95,-67.96 -2.55,-101.57 -0.85,-48.33 -1.59,-96.54 -2.12,-144.87 -0.02,-1.64 -0.04,-3.26 -0.06,-4.9"
         style="fill:#192438;fill-opacity:1;fill-rule:nonzero;stroke:none"
         transform="matrix(0.13333333,0,0,-0.13333333,-21.621622,663.96397)" />
      <path
         id="path180"
         d="m 6167.39,787.992 c -1.72,16.258 -3.58,34.297 -5.57,54.059 80.39,6.14 160.28,13.008 238.56,20.379 1.07,-17.309 2.16,-34.711 3.27,-52.02 -78.47,-10.308 -157.3,-17.211 -236.26,-22.398 m -6.56,64 c -1.08,10.828 -2.19,22.168 -3.32,33.937 80.13,6.422 160.06,15.133 239.8,26.961 0.81,-13.512 1.62,-26.988 2.45,-40.488 -78.4,-7.383 -158.41,-14.274 -238.93,-20.41 m -4.28,43.898 c -16.25,170.13 -37.55,432.09 -50.46,744.42 85.64,2.03 171.4,4.1 256.81,11.62 8.04,-243.19 19.33,-486.25 33.81,-729.02 -79.81,-11.86 -159.89,-20.59 -240.16,-27.02"
         style="fill:#eaeae7;fill-opacity:1;fill-rule:nonzero;stroke:none"
         transform="matrix(0.13333333,0,0,-0.13333333,-21.621622,663.96397)" />
      <path
         id="path181"
         d="m 6157.51,885.949 c -0.32,3.301 -0.64,6.602 -0.96,9.961 80.27,6.43 160.35,15.16 240.16,27.02 0.19,-3.321 0.4,-6.711 0.6,-10.02 -79.74,-11.828 -159.67,-20.539 -239.8,-26.961"
         style="fill:#636c83;fill-opacity:1;fill-rule:nonzero;stroke:none"
         transform="matrix(0.13333333,0,0,-0.13333333,-21.621622,663.96397)" />
      <path
         id="path182"
         d="m 6161.82,842.051 c -0.32,3.258 -0.66,6.597 -0.99,9.961 80.52,6.136 160.53,13.027 238.93,20.41 0.21,-3.352 0.41,-6.633 0.62,-9.992 -78.28,-7.371 -158.17,-14.239 -238.56,-20.379"
         style="fill:#636c83;fill-opacity:1;fill-rule:nonzero;stroke:none"
         transform="matrix(0.13333333,0,0,-0.13333333,-21.621622,663.96397)" />
      <path
         id="path183"
         d="m 6105.68,1650.33 c -18.1,445.34 -18.96,991.42 35.98,1518.91 0,0 106.27,-14.84 212.89,-47.62 -1.17,-34.05 -1.92,-67.96 -2.51,-101.58 -0.85,-48.22 -1.59,-96.54 -2.12,-144.77 -0.02,-1.68 -0.04,-3.31 -0.06,-5 -1.25,-106 -1.88,-211.98 -1.88,-317.99 0,-296.85 4.89,-593.73 14.59,-890.32 -85.22,-7.53 -171.01,-9.6 -256.89,-11.63"
         style="fill:#eaeae7;fill-opacity:1;fill-rule:nonzero;stroke:none"
         transform="matrix(0.13333333,0,0,-0.13333333,-21.621622,663.96397)" />
      <path
         id="path184"
         d="m 6106.09,1640.33 c -0.14,3.32 -0.28,6.67 -0.41,10 85.88,2.03 171.67,4.1 256.89,11.63 0.11,-3.36 0.22,-6.65 0.33,-10.01 -85.41,-7.52 -171.17,-9.59 -256.81,-11.62"
         style="fill:#cdcfd4;fill-opacity:1;fill-rule:nonzero;stroke:none"
         transform="matrix(0.13333333,0,0,-0.13333333,-21.621622,663.96397)" />
      <path
         id="path185"
         d="m 6403.65,810.41 -0.65,4.961 c -155.3,-20.422 -312.11,-27.422 -468.76,-34.41 -66.34,-3.02 -206.78,-3.449 -324.09,-3.449 -47.04,0 -90.38,0.07 -123.78,0.07 -33.37,0 -76.7,-0.07 -123.73,-0.07 -117.3,0 -257.77,0.437 -324.03,3.449 -156.76,6.988 -313.57,13.988 -468.87,34.41 l -0.65,-4.961 4.99,-0.32 c 37,579.07 55.69,1159.87 55.69,1740.75 0,108.16 -0.65,216.33 -1.95,324.49 v 0 c -0.53,48.24 -1.27,96.57 -2.12,144.8 -4.93,279.35 -21.32,580.8 -188.89,804.78 l -4.01,-3 3.03,-3.98 c 115.67,87.91 257.73,141.54 396.24,192.6 h 0.01 c 14.94,5.56 46.53,15.12 76.2,23.57 14.85,4.23 29.25,8.2 40.93,11.28 11.63,3.08 20.7,5.29 24.34,5.93 h 0.01 c 26.5,4.75 51.09,14.94 74.22,24.4 23.11,9.48 44.78,18.2 65.05,20.49 l -0.57,4.97 -2.03,-4.57 c 114.29,-50.64 260.27,-70.35 376.14,-70.37 115.88,0.02 261.96,19.73 376.15,70.37 l -2.03,4.57 -0.57,-4.97 c 20.26,-2.29 41.96,-11.01 65.1,-20.49 23.15,-9.46 47.77,-19.65 74.28,-24.4 v 0 c 3.64,-0.64 12.71,-2.85 24.34,-5.93 34.98,-9.23 94.65,-26.49 117.01,-34.84 l 0.02,-0.01 c 138.61,-51.17 280.58,-104.7 396.36,-192.6 l 3.02,3.98 -4,3 c -167.68,-223.98 -184.08,-525.43 -189.01,-804.78 -0.85,-48.23 -1.59,-96.56 -2.12,-144.8 v 0 c -1.29,-107.82 -1.94,-215.65 -1.94,-323.48 0,-581.22 18.75,-1162.36 55.68,-1741.76 l 4.99,0.32 -0.65,4.961 0.65,-4.961 4.99,0.32 c -36.91,579.19 -55.66,1160.12 -55.66,1741.12 0,107.79 0.65,215.58 1.94,323.36 v 0.01 c 0.53,48.21 1.27,96.52 2.12,144.74 4.81,279.18 21.7,578.44 187.01,798.95 1.65,2.2 1.21,5.32 -0.98,6.98 -117.39,89.09 -260.3,142.81 -398.94,194.02 l 0.02,-0.01 c -15.53,5.8 -47.03,15.31 -76.85,23.82 -14.9,4.24 -29.35,8.23 -41.1,11.33 -11.79,3.11 -20.74,5.32 -25.15,6.11 h 0.01 c -25.11,4.48 -49.09,14.32 -72.25,23.8 -23.18,9.46 -45.52,18.61 -67.75,21.18 l -2.6,-0.4 c -112.18,-49.82 -257.35,-69.54 -372.09,-69.51 -114.74,-0.03 -259.8,19.69 -372.09,69.51 l -2.59,0.4 c -22.24,-2.57 -44.56,-11.72 -67.7,-21.18 -23.14,-9.48 -47.09,-19.32 -72.19,-23.8 v 0 c -4.41,-0.79 -13.35,-3 -25.15,-6.11 -35.3,-9.33 -94.73,-26.48 -118.05,-35.14 h 0.01 c -138.54,-51.11 -281.55,-104.93 -398.83,-194.02 -2.19,-1.66 -2.63,-4.78 -0.98,-6.98 165.2,-220.51 182.09,-519.77 186.9,-798.95 0.85,-48.22 1.6,-96.53 2.12,-144.74 v -0.01 c 1.3,-108.12 1.95,-216.25 1.95,-324.37 0,-580.67 -18.69,-1161.26 -55.67,-1740.11 -0.17,-2.621 1.74,-4.929 4.34,-5.281 155.87,-20.48 312.97,-27.48 469.72,-34.48 66.73,-3.028 207.11,-3.457 324.48,-3.457 47.04,0 90.37,0.07 123.73,0.07 33.38,0 76.73,-0.07 123.78,-0.07 117.38,0 257.73,0.429 324.54,3.457 156.65,7 313.74,14 469.61,34.48 2.61,0.34 4.51,2.66 4.34,5.281 l -4.99,-0.32"
         style="fill:#1c283e;fill-opacity:1;fill-rule:nonzero;stroke:none"
         transform="matrix(0.13333333,0,0,-0.13333333,-21.621622,663.96397)" />
    </g>
  </g>
</svg>
